<svg xmlns="http://www.w3.org/2000/svg" id="mmd-518bc4ec118a" width="1379.1" height="115.8" aria-describedby="chart-desc-mmd-518bc4ec118a" aria-labelledby="chart-title-mmd-518bc4ec118a" aria-roledescription="流程图" class="flowchart" role="graphics-document document" style="--w:1379.1px" viewBox="-0.1 -10.2 1379.1 115.8"><title id="chart-title-mmd-518bc4ec118a">浏览器渲染页面的流程</title><desc id="chart-desc-mmd-518bc4ec118a">加载并解析 HTML 创建 DOM 树后展示页面；解析 HTML 时加载并解析 CSS，把样式添加到 DOM 节点，再回到 DOM 树</desc><style>#mmd-518bc4ec118a{font-family:&quot;Xiaolai&quot;,&quot;Xiaolai Fallback&quot;,cursive;font-size:15px;fill:#2d2822;}#mmd-518bc4ec118a .error-icon{fill:hsl(223.6363636364, 73.3333333333%, 100%);}#mmd-518bc4ec118a .error-text{fill:rgb(0, 0, 0);stroke:rgb(0, 0, 0);}#mmd-518bc4ec118a .edge-thickness-normal{stroke-width:1px;}#mmd-518bc4ec118a .edge-thickness-thick{stroke-width:3.5px;}#mmd-518bc4ec118a .edge-pattern-solid{stroke-dasharray:0;}#mmd-518bc4ec118a .edge-thickness-invisible{stroke-width:0;fill:none;}#mmd-518bc4ec118a .edge-pattern-dashed{stroke-dasharray:3;}#mmd-518bc4ec118a .edge-pattern-dotted{stroke-dasharray:2;}#mmd-518bc4ec118a .marker{fill:#524a3e;stroke:#524a3e;}#mmd-518bc4ec118a .marker.cross{stroke:#524a3e;}#mmd-518bc4ec118a svg{font-family:&quot;Xiaolai&quot;,&quot;Xiaolai Fallback&quot;,cursive;font-size:15px;}#mmd-518bc4ec118a p{margin:0;}#mmd-518bc4ec118a .label{font-family:&quot;Xiaolai&quot;,&quot;Xiaolai Fallback&quot;,cursive;color:#2d2822;}#mmd-518bc4ec118a .cluster-label text{fill:rgb(0, 0, 0);}#mmd-518bc4ec118a .cluster-label span{color:rgb(0, 0, 0);}#mmd-518bc4ec118a .cluster-label span p{background-color:transparent;}#mmd-518bc4ec118a .label text,#mmd-518bc4ec118a span{fill:#2d2822;color:#2d2822;}#mmd-518bc4ec118a .node rect,#mmd-518bc4ec118a .node circle,#mmd-518bc4ec118a .node ellipse,#mmd-518bc4ec118a .node polygon,#mmd-518bc4ec118a .node path{fill:transparent;stroke:#2d2822;stroke-width:1px;}#mmd-518bc4ec118a .rough-node .label text,#mmd-518bc4ec118a .node .label text,#mmd-518bc4ec118a .image-shape .label,#mmd-518bc4ec118a .icon-shape .label{text-anchor:middle;}#mmd-518bc4ec118a .node .katex path{fill:#000;stroke:#000;stroke-width:1px;}#mmd-518bc4ec118a .rough-node .label,#mmd-518bc4ec118a .node .label,#mmd-518bc4ec118a .image-shape .label,#mmd-518bc4ec118a .icon-shape .label{text-align:center;}#mmd-518bc4ec118a .node.clickable{cursor:pointer;}#mmd-518bc4ec118a .root .anchor path{fill:#524a3e!important;stroke-width:0;stroke:#524a3e;}#mmd-518bc4ec118a .arrowheadPath{fill:rgba(255, 255, 255, 0);}#mmd-518bc4ec118a .edgePaths .path{stroke:#524a3e;stroke-width:1px;}#mmd-518bc4ec118a .flowchart-link{stroke:#524a3e;fill:none;}#mmd-518bc4ec118a .edgeLabel{background-color:#f6edd6;text-align:center;}#mmd-518bc4ec118a .edgeLabel p{background-color:#f6edd6;}#mmd-518bc4ec118a .edgeLabel rect{opacity:0.5;background-color:#f6edd6;fill:#f6edd6;}#mmd-518bc4ec118a .labelBkg{background-color:rgba(246, 237, 214, 0.5);}#mmd-518bc4ec118a .cluster rect{fill:hsl(223.6363636364, 73.3333333333%, 100%);stroke:hsl(223.6363636364, 33.3333333333%, 90%);stroke-width:1px;}#mmd-518bc4ec118a .cluster text{fill:rgb(0, 0, 0);}#mmd-518bc4ec118a .cluster span{color:rgb(0, 0, 0);}#mmd-518bc4ec118a .node .collapsed-indicator{fill:hsl(223.6363636364, 33.3333333333%, 90%);stroke:none;opacity:0.6;}#mmd-518bc4ec118a .node .collapsed-separator{stroke:hsl(223.6363636364, 33.3333333333%, 90%);stroke-width:0.75px;}#mmd-518bc4ec118a div.mermaidTooltip{position:absolute;text-align:center;max-width:200px;padding:2px;font-family:&quot;Xiaolai&quot;,&quot;Xiaolai Fallback&quot;,cursive;font-size:12px;background:hsl(223.6363636364, 73.3333333333%, 100%);border:1px solid hsl(223.6363636364, 33.3333333333%, 90%);border-radius:2px;pointer-events:none;z-index:100;}#mmd-518bc4ec118a .flowchartTitleText{text-anchor:middle;font-size:18px;fill:#2d2822;}#mmd-518bc4ec118a rect.text{fill:none;stroke-width:0;}#mmd-518bc4ec118a .icon-shape,#mmd-518bc4ec118a .image-shape{background-color:#f6edd6;text-align:center;}#mmd-518bc4ec118a .icon-shape p,#mmd-518bc4ec118a .image-shape p{background-color:#f6edd6;padding:2px;}#mmd-518bc4ec118a .icon-shape .label rect,#mmd-518bc4ec118a .image-shape .label rect{opacity:0.5;background-color:#f6edd6;fill:#f6edd6;}#mmd-518bc4ec118a .label-icon{display:inline-block;height:1em;overflow:visible;vertical-align:-0.125em;}#mmd-518bc4ec118a .node .label-icon path{fill:currentColor;stroke:revert;stroke-width:revert;}#mmd-518bc4ec118a .node .neo-node{stroke:#2d2822;}#mmd-518bc4ec118a [data-look=&quot;neo&quot;].node rect,#mmd-518bc4ec118a [data-look=&quot;neo&quot;].cluster rect,#mmd-518bc4ec118a [data-look=&quot;neo&quot;].node polygon{stroke:url(#mmd-518bc4ec118a-gradient);filter:drop-shadow( 1px 2px 2px rgba(185,185,185,1));}#mmd-518bc4ec118a [data-look=&quot;neo&quot;].swimlane.cluster rect{filter:none;}#mmd-518bc4ec118a [data-look=&quot;neo&quot;].node path{stroke:url(#mmd-518bc4ec118a-gradient);stroke-width:1px;}#mmd-518bc4ec118a [data-look=&quot;neo&quot;].node .outer-path{filter:drop-shadow( 1px 2px 2px rgba(185,185,185,1));}#mmd-518bc4ec118a [data-look=&quot;neo&quot;].node .neo-line path{stroke:#2d2822;filter:none;}#mmd-518bc4ec118a [data-look=&quot;neo&quot;].node circle{stroke:url(#mmd-518bc4ec118a-gradient);filter:drop-shadow( 1px 2px 2px rgba(185,185,185,1));}#mmd-518bc4ec118a [data-look=&quot;neo&quot;].node circle .state-start{fill:#000000;}#mmd-518bc4ec118a [data-look=&quot;neo&quot;].icon-shape .icon{fill:url(#mmd-518bc4ec118a-gradient);filter:drop-shadow( 1px 2px 2px rgba(185,185,185,1));}#mmd-518bc4ec118a [data-look=&quot;neo&quot;].icon-shape .icon-neo path{stroke:url(#mmd-518bc4ec118a-gradient);filter:drop-shadow( 1px 2px 2px rgba(185,185,185,1));}#mmd-518bc4ec118a :root{--mermaid-font-family:&quot;trebuchet ms&quot;,verdana,arial,sans-serif;}</style><marker id="mmd-518bc4ec118a_flowchart-v2-pointEnd" class="marker flowchart-v2" markerHeight="8" markerUnits="userSpaceOnUse" markerWidth="8" orient="auto" refX="5" refY="5" viewBox="0 0 10 10"><path d="m0 0 10 5-10 5z" class="arrowMarkerPath" style="stroke-width:1;stroke-dasharray:1,0"/></marker><marker id="mmd-518bc4ec118a_flowchart-v2-pointStart" class="marker flowchart-v2" markerHeight="8" markerUnits="userSpaceOnUse" markerWidth="8" orient="auto" refX="4.5" refY="5" viewBox="0 0 10 10"><path d="m0 5 10 5V0z" class="arrowMarkerPath" style="stroke-width:1;stroke-dasharray:1,0"/></marker><marker id="mmd-518bc4ec118a_flowchart-v2-pointEnd-margin" class="marker flowchart-v2" markerHeight="14" markerUnits="userSpaceOnUse" markerWidth="10.5" orient="auto" refX="11.5" refY="7" viewBox="0 0 11.5 14"><path d="m0 0 11.5 7L0 14z" class="arrowMarkerPath" style="stroke-width:0;stroke-dasharray:1,0"/></marker><marker id="mmd-518bc4ec118a_flowchart-v2-pointStart-margin" class="marker flowchart-v2" markerHeight="14" markerUnits="userSpaceOnUse" markerWidth="11.5" orient="auto" refX="1" refY="7" viewBox="0 0 11.5 14"><polygon points="0,7 11.5,14 11.5,0" class="arrowMarkerPath" style="stroke-width:0;stroke-dasharray:1,0"/></marker><marker id="mmd-518bc4ec118a_flowchart-v2-circleEnd" class="marker flowchart-v2" markerHeight="11" markerUnits="userSpaceOnUse" markerWidth="11" orient="auto" refX="11" refY="5" viewBox="0 0 10 10"><circle cx="5" cy="5" r="5" class="arrowMarkerPath" style="stroke-width:1;stroke-dasharray:1,0"/></marker><marker id="mmd-518bc4ec118a_flowchart-v2-circleStart" class="marker flowchart-v2" markerHeight="11" markerUnits="userSpaceOnUse" markerWidth="11" orient="auto" refX="-1" refY="5" viewBox="0 0 10 10"><circle cx="5" cy="5" r="5" class="arrowMarkerPath" style="stroke-width:1;stroke-dasharray:1,0"/></marker><marker id="mmd-518bc4ec118a_flowchart-v2-circleEnd-margin" class="marker flowchart-v2" markerHeight="14" markerUnits="userSpaceOnUse" markerWidth="14" orient="auto" refX="12.3" refY="5" viewBox="0 0 10 10"><circle cx="5" cy="5" r="5" class="arrowMarkerPath" style="stroke-width:0;stroke-dasharray:1,0"/></marker><marker id="mmd-518bc4ec118a_flowchart-v2-circleStart-margin" class="marker flowchart-v2" markerHeight="14" markerUnits="userSpaceOnUse" markerWidth="14" orient="auto" refX="-2" refY="5" viewBox="0 0 10 10"><circle cx="5" cy="5" r="5" class="arrowMarkerPath" style="stroke-width:0;stroke-dasharray:1,0"/></marker><marker id="mmd-518bc4ec118a_flowchart-v2-crossEnd" class="marker cross flowchart-v2" markerHeight="11" markerUnits="userSpaceOnUse" markerWidth="11" orient="auto" refX="12" refY="5.2" viewBox="0 0 11 11"><path d="m1 1 9 9m0-9-9 9" class="arrowMarkerPath" style="stroke-width:2;stroke-dasharray:1,0"/></marker><marker id="mmd-518bc4ec118a_flowchart-v2-crossStart" class="marker cross flowchart-v2" markerHeight="11" markerUnits="userSpaceOnUse" markerWidth="11" orient="auto" refX="-1" refY="5.2" viewBox="0 0 11 11"><path d="m1 1 9 9m0-9-9 9" class="arrowMarkerPath" style="stroke-width:2;stroke-dasharray:1,0"/></marker><marker id="mmd-518bc4ec118a_flowchart-v2-crossEnd-margin" class="marker cross flowchart-v2" markerHeight="12" markerUnits="userSpaceOnUse" markerWidth="12" orient="auto" refX="17.7" refY="7.5" viewBox="0 0 15 15"><path d="m1 1 13 13M1 14 14 1" class="arrowMarkerPath" style="stroke-width:2.5"/></marker><marker id="mmd-518bc4ec118a_flowchart-v2-crossStart-margin" class="marker cross flowchart-v2" markerHeight="12" markerUnits="userSpaceOnUse" markerWidth="12" orient="auto" refX="-3.5" refY="7.5" viewBox="0 0 15 15"><path d="m1 1 13 13M1 14 14 1" class="arrowMarkerPath" style="stroke-width:2.5;stroke-dasharray:1,0"/></marker><g class="root"><g class="edgePaths"><path id="mmd-518bc4ec118a-L_A_B_0" fill="none" stroke="#000" stroke-width="1" marker-end="url(#mmd-518bc4ec118a_flowchart-v2-pointEnd)" d="M159.7 31.8h4.2m-4 0h4.1m0 0c4-.3 12.5 0 20.3.5m-20-.3a157 157 0 0 1 20 .4m-.1-.6c7.5 0 15.2.2 18.2.3m-17.7 0q11.7-.7 17.7-.4m0 .2 3.6-.1m-3.6 0h3.4" class="edge-thickness-normal edge-pattern-solid transition edge-thickness-normal edge-pattern-solid flowchart-link" data-edge="true" data-et="edge" data-id="L_A_B_0" data-look="handDrawn" data-points="W3sieCI6MTU5Ljg2NjUwMDg1NDQ5MjIsInkiOjMxLjg0NDY0ODM2MTIwNjA1NX0seyJ4IjoxODQuODY2NTAwODU0NDkyMiwieSI6MzEuODQ0NjQ4MzYxMjA2MDU1fSx7IngiOjIwOS44NjY1MDA4NTQ0OTIyLCJ5IjozMS44NDQ2NDgzNjEyMDYwNTV9XQ=="/><path id="mmd-518bc4ec118a-L_B_C_0" fill="none" stroke="#000" stroke-width="1" marker-end="url(#mmd-518bc4ec118a_flowchart-v2-pointEnd)" d="M357.4 7.9c1.2-.2 2-.5 4.9-1.6M357.5 8q2.7-.8 4.9-1.7m0 0c4.6-2 14.5-4.9 36.4-6m-36.2 6.2c5.3-1.9 14.5-5 36.3-6m-.2-.6a1351 1351 0 0 1 89-1.4M399.2.2a1015 1015 0 0 1 88.5-2m0 .1c33.3.3 67.6-.4 100.5 0m-100.3.5c33-.6 66.8-.5 100.3.2m.4-.7q49.7-.7 101.3.2M588-1.5c34.7-.2 67.7.1 102 0m-.5-.2c33.4.6 67.7-.3 101.1-.4m-101 .2c33.9.2 67 .4 100.2.8m.7-.6c33.2-.4 67.7.5 101.4-.1M791-1.8c33.7.4 66.9.7 100.9-.4m-.5.5c33.8 0 67.6-.1 88.1 1.7m-87.6-1.1c33.8-.5 67.2-.1 87.3 1.3m.5-.5a100 100 0 0 1 34.2 5.6m-34-5.4c21.3.6 29.6 4.6 33.8 5.8m-.1-.3 4.2 1.3m-4.3-1.4 4.2 1.4" class="edge-thickness-normal edge-pattern-solid transition edge-thickness-normal edge-pattern-solid flowchart-link" data-edge="true" data-et="edge" data-id="L_B_C_0" data-look="handDrawn" data-points="W3sieCI6MzU3LjU0MDcyMzcxMTY3MTI2LCJ5Ijo4fSx7IngiOjM4Ni43MzMwMDE3MDg5ODQ0LCJ5IjotMS43MDI2Nzg2ODA0MTk5MjE5fSx7IngiOjQ4Ny42NjYyNTIxMzYyMzA0NywieSI6LTEuNzAyNjc4NjgwNDE5OTIxOX0seyJ4Ijo1ODguNTk5NTAyNTYzNDc2NiwieSI6LTEuNzAyNjc4NjgwNDE5OTIxOX0seyJ4Ijo2ODkuNTMyNzUyOTkwNzIyNywieSI6LTEuNzAyNjc4NjgwNDE5OTIxOX0seyJ4Ijo3OTAuNDY2MDAzNDE3OTY4OCwieSI6LTEuNzAyNjc4NjgwNDE5OTIxOX0seyJ4Ijo4OTEuMzk5MjUzODQ1MjE0OCwieSI6LTEuNzAyNjc4NjgwNDE5OTIxOX0seyJ4Ijo5OTIuMzMyNTA0MjcyNDYwOSwieSI6LTEuNzAyNjc4NjgwNDE5OTIxOX0seyJ4IjoxMDIxLjUyNDc4MjI2OTc3NCwieSI6OH1d"/><path id="mmd-518bc4ec118a-L_C_D_0" fill="none" stroke="#000" stroke-width="1" marker-end="url(#mmd-518bc4ec118a_flowchart-v2-pointEnd)" d="M1169 31.8h4.3m-4.1 0h4.2m0 0c3.9-.3 12.4 0 20.3.5m-20.2-.3a160 160 0 0 1 20.2.4m-.2-.6c7.5 0 15.2.2 18.2.3m-17.7 0q11.7-.7 17.8-.4m0 .2 3.5-.1m-3.6 0h3.4" class="edge-thickness-normal edge-pattern-solid transition edge-thickness-normal edge-pattern-solid flowchart-link" data-edge="true" data-et="edge" data-id="L_C_D_0" data-look="handDrawn" data-points="W3sieCI6MTE2OS4xOTkwMDUxMjY5NTMxLCJ5IjozMS44NDQ2NDgzNjEyMDYwNTV9LHsieCI6MTE5NC4xOTkwMDUxMjY5NTMxLCJ5IjozMS44NDQ2NDgzNjEyMDYwNTV9LHsieCI6MTIxOS4xOTkwMDUxMjY5NTMxLCJ5IjozMS44NDQ2NDgzNjEyMDYwNTV9XQ=="/><path id="mmd-518bc4ec118a-L_B_E_0" fill="none" stroke="#000" stroke-width="1" marker-end="url(#mmd-518bc4ec118a_flowchart-v2-pointEnd)" d="m357.4 55.6 4.9 1.6m-4.8-1.5 4.9 1.5m0 .1c4.6 1.3 14.5 4.8 23.1 7m-23-6.8c5.4 1.3 14.6 4.6 23 6.9m-.1-.6c8.1 1.6 15.8 1.7 18.9 1.8m-18.4-1.5c8.5 1 14.3 1 18.4 1.2m0 .2 3.5-.2m-3.5.1h3.4" class="edge-thickness-normal edge-pattern-solid transition edge-thickness-normal edge-pattern-solid flowchart-link" data-edge="true" data-et="edge" data-id="L_B_E_0" data-look="handDrawn" data-points="W3sieCI6MzU3LjU0MDcyMzcxMTY3MTI2LCJ5Ijo1NS42ODkyOTY3MjI0MTIxMX0seyJ4IjozODYuNzMzMDAxNzA4OTg0NCwieSI6NjUuMzkxOTc1NDAyODMyMDN9LHsieCI6NDExLjczMzAwMTcwODk4NDQsInkiOjY1LjM5MTk3NTQwMjgzMjAzfV0="/><path id="mmd-518bc4ec118a-L_E_F_0" fill="none" stroke="#000" stroke-width="1" marker-end="url(#mmd-518bc4ec118a_flowchart-v2-pointEnd)" d="M563.5 65.3h4.2m-4.1 0h4.2m0 0c3.9-.3 12.4 0 20.3.6m-20.2-.3c4.7-.4 12.5-.3 20.2.4m-.2-.6 18.3.2m-17.8 0q11.7-.6 17.8-.3m0 .2 3.5-.2m-3.6.1h3.4" class="edge-thickness-normal edge-pattern-solid transition edge-thickness-normal edge-pattern-solid flowchart-link" data-edge="true" data-et="edge" data-id="L_E_F_0" data-look="handDrawn" data-points="W3sieCI6NTYzLjU5OTUwMjU2MzQ3NjYsInkiOjY1LjM5MTk3NTQwMjgzMjAzfSx7IngiOjU4OC41OTk1MDI1NjM0NzY2LCJ5Ijo2NS4zOTE5NzU0MDI4MzIwM30seyJ4Ijo2MTMuNTk5NTAyNTYzNDc2NiwieSI6NjUuMzkxOTc1NDAyODMyMDN9XQ=="/><path id="mmd-518bc4ec118a-L_F_G_0" fill="none" stroke="#000" stroke-width="1" marker-end="url(#mmd-518bc4ec118a_flowchart-v2-pointEnd)" d="M765.3 65.3h4.2m-4 0h4.1m0 0c4-.3 12.5 0 20.3.6m-20-.3c4.6-.4 12.4-.3 20 .4m-.1-.6 18.2.2m-17.7 0q11.7-.6 17.7-.3m0 .2 3.6-.2m-3.6.1h3.4" class="edge-thickness-normal edge-pattern-solid transition edge-thickness-normal edge-pattern-solid flowchart-link" data-edge="true" data-et="edge" data-id="L_F_G_0" data-look="handDrawn" data-points="W3sieCI6NzY1LjQ2NjAwMzQxNzk2ODgsInkiOjY1LjM5MTk3NTQwMjgzMjAzfSx7IngiOjc5MC40NjYwMDM0MTc5Njg4LCJ5Ijo2NS4zOTE5NzU0MDI4MzIwM30seyJ4Ijo4MTUuNDY2MDAzNDE3OTY4OCwieSI6NjUuMzkxOTc1NDAyODMyMDN9XQ=="/><path id="mmd-518bc4ec118a-L_G_C_0" fill="none" stroke="#000" stroke-width="1" marker-end="url(#mmd-518bc4ec118a_flowchart-v2-pointEnd)" d="M967.2 65.3h4.2m-4.1 0h4.2m0 0c4-.3 12.4 0 21-.9m-20.8 1.2c4.6-.4 12.4-.3 20.9-1m-.2-.6c8.2-1.4 17.4-4.1 21.1-5.4M993 64.3c8.5-2 15.8-4.8 20.7-6m0 .1 4.3-1.5m-4.4 1.5q1.6-.7 4.2-1.4" class="edge-thickness-normal edge-pattern-solid transition edge-thickness-normal edge-pattern-solid flowchart-link" data-edge="true" data-et="edge" data-id="L_G_C_0" data-look="handDrawn" data-points="W3sieCI6OTY3LjMzMjUwNDI3MjQ2MDksInkiOjY1LjM5MTk3NTQwMjgzMjAzfSx7IngiOjk5Mi4zMzI1MDQyNzI0NjA5LCJ5Ijo2NS4zOTE5NzU0MDI4MzIwM30seyJ4IjoxMDIxLjUyNDc4MjI2OTc3NCwieSI6NTUuNjg5Mjk2NzIyNDEyMTF9XQ=="/></g><g class="edgeLabels"><rect class="background" style="stroke:none"/><rect class="background" style="stroke:none"/><rect class="background" style="stroke:none"/><rect class="background" style="stroke:none"/><rect class="background" style="stroke:none"/><rect class="background" style="stroke:none"/><rect class="background" style="stroke:none"/></g><g class="nodes"><g id="mmd-518bc4ec118a-flowchart-A-0" class="rough-node default" data-look="handDrawn"><path fill="none" stroke="#2d2822" stroke-dasharray="0 0" stroke-width="1.3" d="M12.5 8.5C43.2 10 70 9.8 152.8 8.5m-139.2.7c48.6.9 98.6.9 140.3-.4m0 .5c2.2-.8 4.9 2 5.3 6.1m-4.8-5.7c3.8-.7 4.9 1.7 5 6m-.5-.2c.4 10.8.8 20.6-.2 35.1m-.2-36.2c-.2 9.6.7 18.3.7 35.5m-.3-.6q-1.2 4.1-5.8 6.4m6.6-6c-1.5 1.6-4.6 5.3-7.3 3.2M154 54c-50.5 1.4-103.3.3-138.7 1.1m138-.1c-33-1-67.4-.7-138.7-.8m-.7.1c-1.7 1.2-3.7-2.5-6-5.8m7 4.8c-3.4 2.4-6.6-.5-4.5-3.2m-1.7.3a174 174 0 0 0 .5-35.2m-.6 33.4c0-12.7.3-25 .5-33.9m-.2-.4c.5-1.6 2.6-6 5.9-6.3m-5.4 7.4c.5-4.3 2.3-5.5 5.5-5m-1-1" class="basic label-container"/><g class="label" transform="translate(84 24.3)"><rect/><rect class="background" style="stroke:none"/><text y="-10.1"><tspan x="0" y="-.1em" class="text-outer-tspan row" dy="1.1em"><tspan class="text-inner-tspan" font-style="normal" font-weight="normal">加载HTML</tspan></tspan></text></g></g><g id="mmd-518bc4ec118a-flowchart-B-1" class="rough-node default" data-look="handDrawn"><path fill="none" stroke="#2d2822" stroke-dasharray="0 0" stroke-width="1.3" d="M214.4 8.5c30.6 1.5 57.5 1.3 140.3 0m-139.3.7c48.7.9 98.7.9 140.4-.4m0 .5c2.2-.8 4.8 2 5.3 6.1m-4.9-5.7c3.9-.7 5 1.7 5 6m-.4-.2c.4 10.8.8 20.6-.2 35.1m-.3-36.2c0 9.6.7 18.3.7 35.5m-.2-.6q-1.3 4.1-5.8 6.4m6.6-6c-1.5 1.6-4.6 5.3-7.3 3.2M356 54c-50.6 1.4-103.3.3-138.7 1.1m138-.1c-33-1-67.5-.7-138.8-.8m-.6.1c-1.8 1.2-3.7-2.5-6-5.8m7 4.8c-3.4 2.4-6.7-.5-4.5-3.2m-1.8.3a174 174 0 0 0 .6-35.2m-.6 33.4c0-12.7.2-25 .5-33.9m-.2-.4c.4-1.6 2.6-6 5.8-6.3m-5.3 7.4c.5-4.3 2.3-5.5 5.5-5m-1-1" class="basic label-container"/><g class="label" transform="translate(285.8 24.3)"><rect/><rect class="background" style="stroke:none"/><text y="-10.1"><tspan x="0" y="-.1em" class="text-outer-tspan row" dy="1.1em"><tspan class="text-inner-tspan" font-style="normal" font-weight="normal">解析HTML</tspan></tspan></text></g></g><g id="mmd-518bc4ec118a-flowchart-C-2" class="rough-node default" data-look="handDrawn"><path fill="none" stroke="#2d2822" stroke-dasharray="0 0" stroke-width="1.3" d="M1021.9 8.5c30.6 1.5 57.4 1.3 140.3 0m-139.3.7c48.6.9 98.6.9 140.3-.4m0 .5c2.3-.8 4.9 2 5.4 6.1m-5-5.7c4-.7 5 1.7 5 6m-.4-.2c.4 10.8.8 20.6-.2 35.1m-.2-36.2c-.1 9.6.7 18.3.7 35.5m-.2-.6q-1.4 4.1-5.9 6.4m6.7-6c-1.5 1.6-4.7 5.3-7.3 3.2m1.6 1.1c-50.6 1.4-103.3.3-138.8 1.1m138-.1c-33-1-67.4-.7-138.7-.8m-.6.1c-1.8 1.2-3.8-2.5-6.1-5.8m7 4.8c-3.4 2.4-6.6-.5-4.5-3.2m-1.7.3a174 174 0 0 0 .5-35.2m-.6 33.4c0-12.7.3-25 .6-33.9m-.2-.4c.4-1.6 2.6-6 5.8-6.3m-5.3 7.4c.4-4.3 2.2-5.5 5.5-5m-1-1" class="basic label-container"/><g class="label" transform="translate(1093.3 24.3)"><rect/><rect class="background" style="stroke:none"/><text y="-10.1"><tspan x="0" y="-.1em" class="text-outer-tspan row" dy="1.1em"><tspan class="text-inner-tspan" font-style="normal" font-weight="normal">创建DOM树</tspan></tspan></text></g></g><g id="mmd-518bc4ec118a-flowchart-D-3" class="rough-node default" data-look="handDrawn"><path fill="none" stroke="#2d2822" stroke-dasharray="0 0" stroke-width="1.3" d="M1223.7 8.5c30.7 1.5 57.5 1.3 140.3 0m-139.2.7c48.6.9 98.6.9 140.3-.4m0 .5c2.2-.8 4.9 2 5.3 6.1m-4.8-5.7c3.8-.7 4.9 1.7 5 6m-.5-.2c.4 10.8.8 20.6-.2 35.1m-.2-36.2c-.2 9.6.7 18.3.7 35.5m-.3-.6q-1.2 4.1-5.8 6.4m6.6-6c-1.5 1.6-4.6 5.3-7.3 3.2m1.6 1.1c-50.5 1.4-103.3.3-138.7 1.1m138-.1c-33-1-67.4-.7-138.7-.8m-.7.1c-1.7 1.2-3.7-2.5-6-5.8m7 4.8c-3.4 2.4-6.6-.5-4.5-3.2m-1.7.3a174 174 0 0 0 .5-35.2m-.6 33.4c0-12.7.3-25 .5-33.9m-.2-.4c.5-1.6 2.6-6 5.9-6.3m-5.4 7.4c.5-4.3 2.3-5.5 5.5-5m-1-1" class="basic label-container"/><g class="label" transform="translate(1295.1 24.3)"><rect/><rect class="background" style="stroke:none"/><text y="-10.1"><tspan x="0" y="-.1em" class="text-outer-tspan row" dy="1.1em"><tspan class="text-inner-tspan" font-style="normal" font-weight="normal">展示页面</tspan></tspan></text></g></g><g id="mmd-518bc4ec118a-flowchart-E-5" class="rough-node default" data-look="handDrawn"><path fill="none" stroke="#2d2822" stroke-dasharray="0 0" stroke-width="1.3" d="M416.3 42c30.6 1.6 57.4 1.4 140.3 0m-139.3.8c48.6.8 98.6.8 140.3-.4m0 .5c2.3-.9 4.9 2 5.4 6m-5-5.6c4-.7 5 1.6 5 6m-.4-.2c.4 10.8.8 20.5-.2 35m-.2-36.1c-.1 9.6.7 18.2.7 35.5m-.2-.6c-.9 2.5-2.9 5-5.9 6.4m6.7-6c-1.5 1.5-4.7 5.3-7.3 3.1m1.6 1.2c-50.6 1.3-103.3.2-138.8 1m138 0c-33-1-67.4-.8-138.7-.8m-.6 0c-1.8 1.3-3.8-2.5-6.1-5.8m7 4.8c-3.4 2.4-6.6-.4-4.5-3.2m-1.7.4a174 174 0 0 0 .5-35.3m-.6 33.5c0-12.7.3-25 .6-34m-.2-.3c.4-1.7 2.6-6 5.8-6.3m-5.3 7.3c.4-4.2 2.2-5.5 5.5-4.9m-1-1.1" class="basic label-container"/><g class="label" transform="translate(487.7 57.9)"><rect/><rect class="background" style="stroke:none"/><text y="-10.1"><tspan x="0" y="-.1em" class="text-outer-tspan row" dy="1.1em"><tspan class="text-inner-tspan" font-style="normal" font-weight="normal">加载CSS</tspan></tspan></text></g></g><g id="mmd-518bc4ec118a-flowchart-F-6" class="rough-node default" data-look="handDrawn"><path fill="none" stroke="#2d2822" stroke-dasharray="0 0" stroke-width="1.3" d="M618.1 42c30.7 1.6 57.5 1.4 140.3 0m-139.2.8c48.6.8 98.6.8 140.3-.4m0 .5c2.2-.9 4.9 2 5.3 6m-4.8-5.6c3.8-.7 4.9 1.6 5 6m-.5-.2c.4 10.8.8 20.5-.2 35M764 48c-.2 9.6.7 18.2.7 35.5m-.3-.6a11 11 0 0 1-5.8 6.4m6.6-6c-1.5 1.5-4.6 5.3-7.3 3.1m1.6 1.2c-50.5 1.3-103.3.2-138.7 1m138 0c-33-1-67.4-.8-138.7-.8m-.7 0c-1.7 1.3-3.7-2.5-6-5.8m7 4.8c-3.4 2.4-6.6-.4-4.5-3.2m-1.7.4a174 174 0 0 0 .5-35.3m-.6 33.5c0-12.7.3-25 .5-34m-.2-.3c.5-1.7 2.6-6 5.9-6.3m-5.4 7.3c.5-4.2 2.3-5.5 5.5-4.9m-1-1.1" class="basic label-container"/><g class="label" transform="translate(689.5 57.9)"><rect/><rect class="background" style="stroke:none"/><text y="-10.1"><tspan x="0" y="-.1em" class="text-outer-tspan row" dy="1.1em"><tspan class="text-inner-tspan" font-style="normal" font-weight="normal">解析CSS</tspan></tspan></text></g></g><g id="mmd-518bc4ec118a-flowchart-G-7" class="rough-node default" data-look="handDrawn"><path fill="none" stroke="#2d2822" stroke-dasharray="0 0" stroke-width="1.3" d="M820 33.8c30.6 1.5 57.5 1.3 140.3 0m-139.3.7c48.7.9 98.7.9 140.4-.4m0 .5c2.2-.8 4.8 2 5.3 6.1m-4.9-5.7c3.9-.7 5 1.7 5 6m-.4-.2c.4 16 .8 30.7-.2 51.6m-.3-52.7c-.2 14 .6 27.1.7 52m-.2-.6a11 11 0 0 1-5.8 6.4m6.6-6c-1.5 1.6-4.6 5.3-7.3 3.2m1.6 1.1c-50.6 1.4-103.3.3-138.7 1.1m138-.1c-33-1-67.5-.7-138.8-.8m-.6.1c-1.8 1.2-3.7-2.5-6-5.8m7 4.8c-3.4 2.4-6.7-.5-4.5-3.2m-1.8.3c1.6-19.3 1.4-34 .6-51.7m-.6 50c-.2-18.9.2-37.3.5-50.5m-.2-.4c.4-1.6 2.6-6 5.8-6.3m-5.3 7.4c.5-4.3 2.3-5.5 5.5-5m-1-1" class="basic label-container"/><g class="label" transform="translate(891.4 49.6)"><rect/><rect class="background" style="stroke:none"/><text y="-10.1"><tspan x="0" y="-.1em" class="text-outer-tspan row" dy="1.1em"><tspan class="text-inner-tspan" font-style="normal" font-weight="normal">添加样式到DOM</tspan></tspan><tspan x="0" y="1em" class="text-outer-tspan row" dy="1.1em"><tspan class="text-inner-tspan" font-style="normal" font-weight="normal">节点</tspan></tspan></text></g></g></g></g><defs><filter id="mmd-518bc4ec118a-drop-shadow" width="130%" height="130%"><feDropShadow dx="4" dy="4" flood-color="#000" flood-opacity=".1" stdDeviation="0"/></filter></defs><defs><filter id="mmd-518bc4ec118a-drop-shadow-small" width="150%" height="150%"><feDropShadow dx="2" dy="2" flood-color="#000" flood-opacity=".1" stdDeviation="0"/></filter></defs><linearGradient id="mmd-518bc4ec118a-gradient" x1="0%" x2="100%" y1="0%" y2="0%" gradientUnits="objectBoundingBox"><stop offset="0%" stop-color="#2d2822" stop-opacity="1"/><stop offset="100%" stop-color="hsl(-76.3636363636, 33.3333333333%, 87.0588235294%)" stop-opacity="1"/></linearGradient></svg>