<svg xmlns="http://www.w3.org/2000/svg" id="mmd-5f2a70b409a2" width="199" height="415.8" aria-describedby="chart-desc-mmd-5f2a70b409a2" aria-labelledby="chart-title-mmd-5f2a70b409a2" aria-roledescription="流程图" class="flowchart" role="graphics-document document" style="--w:199px" viewBox="0.1 0 199 415.8"><title id="chart-title-mmd-5f2a70b409a2">访问容器端口的数据包流向</title><desc id="chart-desc-mmd-5f2a70b409a2">客户端经 eth0 到达宿主机，经 iptables NAT 到 docker0 网桥，再转发到容器</desc><style>#mmd-5f2a70b409a2{font-family:&quot;Xiaolai&quot;,&quot;Xiaolai Fallback&quot;,cursive;font-size:15px;fill:#2d2822;}#mmd-5f2a70b409a2 .error-icon{fill:hsl(223.6363636364, 73.3333333333%, 100%);}#mmd-5f2a70b409a2 .error-text{fill:rgb(0, 0, 0);stroke:rgb(0, 0, 0);}#mmd-5f2a70b409a2 .edge-thickness-normal{stroke-width:1px;}#mmd-5f2a70b409a2 .edge-thickness-thick{stroke-width:3.5px;}#mmd-5f2a70b409a2 .edge-pattern-solid{stroke-dasharray:0;}#mmd-5f2a70b409a2 .edge-thickness-invisible{stroke-width:0;fill:none;}#mmd-5f2a70b409a2 .edge-pattern-dashed{stroke-dasharray:3;}#mmd-5f2a70b409a2 .edge-pattern-dotted{stroke-dasharray:2;}#mmd-5f2a70b409a2 .marker{fill:#524a3e;stroke:#524a3e;}#mmd-5f2a70b409a2 .marker.cross{stroke:#524a3e;}#mmd-5f2a70b409a2 svg{font-family:&quot;Xiaolai&quot;,&quot;Xiaolai Fallback&quot;,cursive;font-size:15px;}#mmd-5f2a70b409a2 p{margin:0;}#mmd-5f2a70b409a2 .label{font-family:&quot;Xiaolai&quot;,&quot;Xiaolai Fallback&quot;,cursive;color:#2d2822;}#mmd-5f2a70b409a2 .cluster-label text{fill:rgb(0, 0, 0);}#mmd-5f2a70b409a2 .cluster-label span{color:rgb(0, 0, 0);}#mmd-5f2a70b409a2 .cluster-label span p{background-color:transparent;}#mmd-5f2a70b409a2 .label text,#mmd-5f2a70b409a2 span{fill:#2d2822;color:#2d2822;}#mmd-5f2a70b409a2 .node rect,#mmd-5f2a70b409a2 .node circle,#mmd-5f2a70b409a2 .node ellipse,#mmd-5f2a70b409a2 .node polygon,#mmd-5f2a70b409a2 .node path{fill:transparent;stroke:#2d2822;stroke-width:1px;}#mmd-5f2a70b409a2 .rough-node .label text,#mmd-5f2a70b409a2 .node .label text,#mmd-5f2a70b409a2 .image-shape .label,#mmd-5f2a70b409a2 .icon-shape .label{text-anchor:middle;}#mmd-5f2a70b409a2 .node .katex path{fill:#000;stroke:#000;stroke-width:1px;}#mmd-5f2a70b409a2 .rough-node .label,#mmd-5f2a70b409a2 .node .label,#mmd-5f2a70b409a2 .image-shape .label,#mmd-5f2a70b409a2 .icon-shape .label{text-align:center;}#mmd-5f2a70b409a2 .node.clickable{cursor:pointer;}#mmd-5f2a70b409a2 .root .anchor path{fill:#524a3e!important;stroke-width:0;stroke:#524a3e;}#mmd-5f2a70b409a2 .arrowheadPath{fill:rgba(255, 255, 255, 0);}#mmd-5f2a70b409a2 .edgePaths .path{stroke:#524a3e;stroke-width:1px;}#mmd-5f2a70b409a2 .flowchart-link{stroke:#524a3e;fill:none;}#mmd-5f2a70b409a2 .edgeLabel{background-color:#f6edd6;text-align:center;}#mmd-5f2a70b409a2 .edgeLabel p{background-color:#f6edd6;}#mmd-5f2a70b409a2 .edgeLabel rect{opacity:0.5;background-color:#f6edd6;fill:#f6edd6;}#mmd-5f2a70b409a2 .labelBkg{background-color:rgba(246, 237, 214, 0.5);}#mmd-5f2a70b409a2 .cluster rect{fill:hsl(223.6363636364, 73.3333333333%, 100%);stroke:hsl(223.6363636364, 33.3333333333%, 90%);stroke-width:1px;}#mmd-5f2a70b409a2 .cluster text{fill:rgb(0, 0, 0);}#mmd-5f2a70b409a2 .cluster span{color:rgb(0, 0, 0);}#mmd-5f2a70b409a2 .node .collapsed-indicator{fill:hsl(223.6363636364, 33.3333333333%, 90%);stroke:none;opacity:0.6;}#mmd-5f2a70b409a2 .node .collapsed-separator{stroke:hsl(223.6363636364, 33.3333333333%, 90%);stroke-width:0.75px;}#mmd-5f2a70b409a2 div.mermaidTooltip{position:absolute;text-align:center;max-width:200px;padding:2px;font-family:&quot;Xiaolai&quot;,&quot;Xiaolai Fallback&quot;,cursive;font-size:12px;background:hsl(223.6363636364, 73.3333333333%, 100%);border:1px solid hsl(223.6363636364, 33.3333333333%, 90%);border-radius:2px;pointer-events:none;z-index:100;}#mmd-5f2a70b409a2 .flowchartTitleText{text-anchor:middle;font-size:18px;fill:#2d2822;}#mmd-5f2a70b409a2 rect.text{fill:none;stroke-width:0;}#mmd-5f2a70b409a2 .icon-shape,#mmd-5f2a70b409a2 .image-shape{background-color:#f6edd6;text-align:center;}#mmd-5f2a70b409a2 .icon-shape p,#mmd-5f2a70b409a2 .image-shape p{background-color:#f6edd6;padding:2px;}#mmd-5f2a70b409a2 .icon-shape .label rect,#mmd-5f2a70b409a2 .image-shape .label rect{opacity:0.5;background-color:#f6edd6;fill:#f6edd6;}#mmd-5f2a70b409a2 .label-icon{display:inline-block;height:1em;overflow:visible;vertical-align:-0.125em;}#mmd-5f2a70b409a2 .node .label-icon path{fill:currentColor;stroke:revert;stroke-width:revert;}#mmd-5f2a70b409a2 .node .neo-node{stroke:#2d2822;}#mmd-5f2a70b409a2 [data-look=&quot;neo&quot;].node rect,#mmd-5f2a70b409a2 [data-look=&quot;neo&quot;].cluster rect,#mmd-5f2a70b409a2 [data-look=&quot;neo&quot;].node polygon{stroke:url(#mmd-5f2a70b409a2-gradient);filter:drop-shadow( 1px 2px 2px rgba(185,185,185,1));}#mmd-5f2a70b409a2 [data-look=&quot;neo&quot;].swimlane.cluster rect{filter:none;}#mmd-5f2a70b409a2 [data-look=&quot;neo&quot;].node path{stroke:url(#mmd-5f2a70b409a2-gradient);stroke-width:1px;}#mmd-5f2a70b409a2 [data-look=&quot;neo&quot;].node .outer-path{filter:drop-shadow( 1px 2px 2px rgba(185,185,185,1));}#mmd-5f2a70b409a2 [data-look=&quot;neo&quot;].node .neo-line path{stroke:#2d2822;filter:none;}#mmd-5f2a70b409a2 [data-look=&quot;neo&quot;].node circle{stroke:url(#mmd-5f2a70b409a2-gradient);filter:drop-shadow( 1px 2px 2px rgba(185,185,185,1));}#mmd-5f2a70b409a2 [data-look=&quot;neo&quot;].node circle .state-start{fill:#000000;}#mmd-5f2a70b409a2 [data-look=&quot;neo&quot;].icon-shape .icon{fill:url(#mmd-5f2a70b409a2-gradient);filter:drop-shadow( 1px 2px 2px rgba(185,185,185,1));}#mmd-5f2a70b409a2 [data-look=&quot;neo&quot;].icon-shape .icon-neo path{stroke:url(#mmd-5f2a70b409a2-gradient);filter:drop-shadow( 1px 2px 2px rgba(185,185,185,1));}#mmd-5f2a70b409a2 :root{--mermaid-font-family:&quot;trebuchet ms&quot;,verdana,arial,sans-serif;}</style><marker id="mmd-5f2a70b409a2_flowchart-v2-pointEnd" class="marker flowchart-v2" markerHeight="8" markerUnits="userSpaceOnUse" markerWidth="8" orient="auto" refX="5" refY="5" viewBox="0 0 10 10"><path d="m0 0 10 5-10 5z" class="arrowMarkerPath" style="stroke-width:1;stroke-dasharray:1,0"/></marker><marker id="mmd-5f2a70b409a2_flowchart-v2-pointStart" class="marker flowchart-v2" markerHeight="8" markerUnits="userSpaceOnUse" markerWidth="8" orient="auto" refX="4.5" refY="5" viewBox="0 0 10 10"><path d="m0 5 10 5V0z" class="arrowMarkerPath" style="stroke-width:1;stroke-dasharray:1,0"/></marker><marker id="mmd-5f2a70b409a2_flowchart-v2-pointEnd-margin" class="marker flowchart-v2" markerHeight="14" markerUnits="userSpaceOnUse" markerWidth="10.5" orient="auto" refX="11.5" refY="7" viewBox="0 0 11.5 14"><path d="m0 0 11.5 7L0 14z" class="arrowMarkerPath" style="stroke-width:0;stroke-dasharray:1,0"/></marker><marker id="mmd-5f2a70b409a2_flowchart-v2-pointStart-margin" class="marker flowchart-v2" markerHeight="14" markerUnits="userSpaceOnUse" markerWidth="11.5" orient="auto" refX="1" refY="7" viewBox="0 0 11.5 14"><polygon points="0,7 11.5,14 11.5,0" class="arrowMarkerPath" style="stroke-width:0;stroke-dasharray:1,0"/></marker><marker id="mmd-5f2a70b409a2_flowchart-v2-circleEnd" class="marker flowchart-v2" markerHeight="11" markerUnits="userSpaceOnUse" markerWidth="11" orient="auto" refX="11" refY="5" viewBox="0 0 10 10"><circle cx="5" cy="5" r="5" class="arrowMarkerPath" style="stroke-width:1;stroke-dasharray:1,0"/></marker><marker id="mmd-5f2a70b409a2_flowchart-v2-circleStart" class="marker flowchart-v2" markerHeight="11" markerUnits="userSpaceOnUse" markerWidth="11" orient="auto" refX="-1" refY="5" viewBox="0 0 10 10"><circle cx="5" cy="5" r="5" class="arrowMarkerPath" style="stroke-width:1;stroke-dasharray:1,0"/></marker><marker id="mmd-5f2a70b409a2_flowchart-v2-circleEnd-margin" class="marker flowchart-v2" markerHeight="14" markerUnits="userSpaceOnUse" markerWidth="14" orient="auto" refX="12.3" refY="5" viewBox="0 0 10 10"><circle cx="5" cy="5" r="5" class="arrowMarkerPath" style="stroke-width:0;stroke-dasharray:1,0"/></marker><marker id="mmd-5f2a70b409a2_flowchart-v2-circleStart-margin" class="marker flowchart-v2" markerHeight="14" markerUnits="userSpaceOnUse" markerWidth="14" orient="auto" refX="-2" refY="5" viewBox="0 0 10 10"><circle cx="5" cy="5" r="5" class="arrowMarkerPath" style="stroke-width:0;stroke-dasharray:1,0"/></marker><marker id="mmd-5f2a70b409a2_flowchart-v2-crossEnd" class="marker cross flowchart-v2" markerHeight="11" markerUnits="userSpaceOnUse" markerWidth="11" orient="auto" refX="12" refY="5.2" viewBox="0 0 11 11"><path d="m1 1 9 9m0-9-9 9" class="arrowMarkerPath" style="stroke-width:2;stroke-dasharray:1,0"/></marker><marker id="mmd-5f2a70b409a2_flowchart-v2-crossStart" class="marker cross flowchart-v2" markerHeight="11" markerUnits="userSpaceOnUse" markerWidth="11" orient="auto" refX="-1" refY="5.2" viewBox="0 0 11 11"><path d="m1 1 9 9m0-9-9 9" class="arrowMarkerPath" style="stroke-width:2;stroke-dasharray:1,0"/></marker><marker id="mmd-5f2a70b409a2_flowchart-v2-crossEnd-margin" class="marker cross flowchart-v2" markerHeight="12" markerUnits="userSpaceOnUse" markerWidth="12" orient="auto" refX="17.7" refY="7.5" viewBox="0 0 15 15"><path d="m1 1 13 13M1 14 14 1" class="arrowMarkerPath" style="stroke-width:2.5"/></marker><marker id="mmd-5f2a70b409a2_flowchart-v2-crossStart-margin" class="marker cross flowchart-v2" markerHeight="12" markerUnits="userSpaceOnUse" markerWidth="12" orient="auto" refX="-3.5" refY="7.5" viewBox="0 0 15 15"><path d="m1 1 13 13M1 14 14 1" class="arrowMarkerPath" style="stroke-width:2.5;stroke-dasharray:1,0"/></marker><g class="root"><g class="edgePaths"><path id="mmd-5f2a70b409a2-L_A_B_0" fill="none" stroke="#000" stroke-width="1" marker-end="url(#mmd-5f2a70b409a2_flowchart-v2-pointEnd)" d="M99.3 56.1c.3 1.3.2 2.4 0 5.8m.1-5.7v5.7m0 0c-.2 5.4 0 17.2.2 28.6m0-28.4c.5 5.5 0 17 0 28.5m-.1-.6c-.2 10.9.5 21.2 0 26.4m.5-26c.1 10.3-1 20.4-.5 25.6m0 .2c-.1 1.2.1 2.2.1 5m0-5q-.3 1.8-.2 5" class="edge-thickness-normal edge-pattern-solid transition edge-thickness-normal edge-pattern-solid flowchart-link" data-edge="true" data-et="edge" data-id="L_A_B_0" data-look="handDrawn" data-points="W3sieCI6OTkuNDgwMjU1MTI2OTUzMTIsInkiOjU2LjIwOTQ5MTcyOTczNjMzfSx7IngiOjk5LjQ4MDI1NTEyNjk1MzEyLCJ5Ijo5MC43MDk0OTE3Mjk3MzYzM30seyJ4Ijo5OS40ODAyNTUxMjY5NTMxMiwieSI6MTI1LjIwOTQ5MTcyOTczNjMzfV0="/><path id="mmd-5f2a70b409a2-L_B_C_0" fill="none" stroke="#000" stroke-width="1" marker-end="url(#mmd-5f2a70b409a2_flowchart-v2-pointEnd)" d="M99.3 173.3c.3 1.3.2 2.4 0 5.8m.1-5.7v5.7m0 0c-.2 5.4 0 17.2.2 28.6m0-28.4c.5 5.5 0 17 0 28.6m-.1-.6c-.2 10.8.5 21 0 26.3m.5-26c.1 10.3-1 20.4-.5 25.6m0 .2c-.1 1.2.1 2.2.1 5m0-5q-.3 1.8-.2 5" class="edge-thickness-normal edge-pattern-solid transition edge-thickness-normal edge-pattern-solid flowchart-link" data-edge="true" data-et="edge" data-id="L_B_C_0" data-look="handDrawn" data-points="W3sieCI6OTkuNDgwMjU1MTI2OTUzMTIsInkiOjE3My40MTg5ODM0NTk0NzI2Nn0seyJ4Ijo5OS40ODAyNTUxMjY5NTMxMiwieSI6MjA3LjkxODk4MzQ1OTQ3MjY2fSx7IngiOjk5LjQ4MDI1NTEyNjk1MzEyLCJ5IjoyNDIuNDE4OTgzNDU5NDcyNjZ9XQ=="/><path id="mmd-5f2a70b409a2-L_C_D_0" fill="none" stroke="#000" stroke-width="1" marker-end="url(#mmd-5f2a70b409a2_flowchart-v2-pointEnd)" d="M99.3 290.5c.3 1.3.2 2.4 0 5.8m.1-5.7v5.7m0 0c-.2 5.5 0 17.2.2 28.6m0-28.4c.5 5.5 0 17 0 28.6m-.1-.6c-.2 10.8.5 21 0 26.3m.5-26c.1 10.3-1 20.4-.5 25.6m0 .2c-.1 1.2.1 2.2.1 5m0-5q-.3 1.8-.2 5" class="edge-thickness-normal edge-pattern-solid transition edge-thickness-normal edge-pattern-solid flowchart-link" data-edge="true" data-et="edge" data-id="L_C_D_0" data-look="handDrawn" data-points="W3sieCI6OTkuNDgwMjU1MTI2OTUzMTIsInkiOjI5MC42Mjg0NzUxODkyMDl9LHsieCI6OTkuNDgwMjU1MTI2OTUzMTIsInkiOjMyNS4xMjg0NzUxODkyMDl9LHsieCI6OTkuNDgwMjU1MTI2OTUzMTIsInkiOjM1OS42Mjg0NzUxODkyMDl9XQ=="/></g><g class="edgeLabels"><g class="edgeLabel"><g class="label" data-id="L_A_B_0" transform="translate(99.5 81.2)"><rect width="37.2" height="19" x="-18.6" y="0" class="background"/><text y="-10.1" text-anchor="middle"><tspan x="0" y="-.1em" class="text-outer-tspan row" dy="1.1em" text-anchor="middle"><tspan class="text-inner-tspan" font-style="normal" font-weight="normal">eth0</tspan></tspan></text></g></g><g class="edgeLabel"><g class="label" data-id="L_B_C_0" transform="translate(99 198.4)"><rect width="95.8" height="19" x="-47.4" y="0" class="background"/><text y="-10.1" text-anchor="middle"><tspan x="0" y="-.1em" class="text-outer-tspan row" dy="1.1em" text-anchor="middle"><tspan class="text-inner-tspan" font-style="normal" font-weight="normal">iptables</tspan><tspan class="text-inner-tspan" font-style="normal" font-weight="normal"> NAT</tspan></tspan></text></g></g><g class="edgeLabel"><g class="label" data-id="L_C_D_0" transform="translate(99.5 315.6)"><rect width="34" height="19" x="-17" y="0" class="background"/><text y="-10.1" text-anchor="middle"><tspan x="0" y="-.1em" class="text-outer-tspan row" dy="1.1em" text-anchor="middle"><tspan class="text-inner-tspan" font-style="normal" font-weight="normal">转发</tspan></tspan></text></g></g></g><g class="nodes"><g id="mmd-5f2a70b409a2-flowchart-A-0" class="rough-node default" data-look="handDrawn"><g class="basic label-container"><path fill="none" stroke="transparent" stroke-dasharray="0 0" stroke-width="1.5" d="M10 12.2c.9-.6 1.6-1.8 2.5-2.7m-2.8 2.8q1.2-1.1 2.7-3m-3.6 6.9q3.8-3 5.6-6.1m-5.1 5.7 5.2-5.9M9 18.1c2.5-1.9 5.5-3.8 8.4-9m-8 9.3c2-1.7 3.4-3.4 8.2-8.7m-7.8 12c2-3.2 4.8-7.4 9.5-12.6m-10.1 13c3.9-5.1 9-9.7 11.3-12.7M8.3 25.6C13.5 19 19.3 14 23 8M9.5 25.4a323 323 0 0 1 13.2-16m-12 18.8A94 94 0 0 1 24.4 9.5M9.9 28c3.7-4 7.4-9 16-18.6M8.2 31.1c5.9-6.5 9.2-9 18.8-22.3M9.7 30.4c6.6-7.5 14.1-16.8 18-20.4M8.4 34.5C17.5 24 25 15.3 29.6 9.6M9.7 33.4c4.9-5.4 10.6-12.5 21-23.3M9 36.1c6.8-5 14.5-14.8 24.3-27.9M9.8 37.7c4.5-6.2 10.4-12.8 23.5-27.9m-23.5 29c7.7-8.6 16.1-17 24.7-28.5M9.7 40.4C15.4 33.8 21 27 35.5 9.4M10.3 42c9.3-11.8 22-24.5 28.2-32.2M9.2 42.5c11.1-13.1 22-24.8 29.6-33M8.6 46.1a1387 1387 0 0 0 34-35.5M8.9 46c9.4-10 17.5-19.4 33.3-36.6M10.9 49C21 37 31.5 25.8 45.5 10M8.8 50C23 33.7 35.5 19.5 44.1 8.9M10.4 52.1c10.2-13.6 24.3-28.7 36-42.3m-37 42.4C22.7 37.7 35.8 22 46.5 9.5M8.8 54.7C24 38.4 40 21.7 48.3 9m-39 46.5c11.6-14 23.6-27.1 39.7-46M12.5 54.2c11-14.5 25.6-27.5 40.5-43.5M12.5 54.4C26.8 38 42.5 21 51.6 9.6M14.5 54C30 39 43.7 20.3 54.3 10.3M15.2 55c12-14 25.5-29 39.4-44.4M19 55a1360 1360 0 0 1 36.8-44M18.2 55c10.4-11.8 20-24 39.5-45M19 53.8c17.6-17.5 33.6-33.7 39.6-43M20.4 54.5c8.3-9.1 16.6-19 40-44.8m-37 45.4c8-10.8 19.2-23.2 39.9-46.4M23.2 55C35 41.4 45.4 29 63.2 9.6M26.2 54c8.6-9.7 20.3-21.7 38-44M25.4 54.6C34 45.9 42.7 36.2 64.8 9.3M28.5 55c8.9-11.8 19-21.4 38.1-46.6M29 55C42.6 38.6 55.1 23.3 68.3 9M30 54c13.6-12.2 26.4-27.2 41.5-43.6M30.9 54.8c14.4-17 29.7-33.3 39-45.6M33.2 54.9c8.7-9 18.7-19 39.4-45.5M34 54.6C46 40.9 57.6 26.8 72.7 9M35 54.3c11.5-9.7 22-22 39.4-43.8M35.6 54.7c8.6-8.9 16.6-18.5 40.1-44.7M40.2 54.7c10-15.2 24.5-28.4 39.4-46M39 54.7c7.7-9.2 16.8-18.5 38.7-45.3m-35.3 46C55 39.4 71 22.2 82 9.4m-41 45c9.2-9.8 17.6-19.2 40-44.4M44.7 54.4C60 37.1 72.5 21.6 83.6 9.6M44.5 55.1c12-13.8 22.7-26.7 39.8-45.2M46.5 56.2C61 37.1 77.8 20.7 84.9 8.8M46.4 55.2c8.8-9.4 16.8-18 40-45.5m-37.6 44c10.8-10.8 22.4-21.4 40.7-43.5M50 55.2c14.8-18 30.1-36.4 39.3-45.4M52.2 55.5c10.1-10.9 20-23.3 39.4-45.5M53 55C65.6 38.5 78.4 24.3 91.2 9.8m-35 45.1c7.3-10.4 18.5-21.5 38.4-45.6M55.5 54.7C67.5 40.7 79.9 26.8 94 9M57.5 56.2c9.6-13.7 18-23.3 40.4-47.6M56.7 55.8c12.2-13.4 24-27.4 39.7-46.5M60.2 54.7C73 40 86.5 22.8 99 8.7M59.6 55.4 99 10.1M62.8 55.3c12.5-16.2 26.8-29 40.9-46.7M62.9 54.3c13.2-14.2 26.3-29 38.8-45.5M65.9 55.9c15-17.5 31.8-35.8 38.3-47.3m-39.5 46 40.5-45m-38 44.3C77 42.1 90 30 106.8 11M67.7 54.5c14.1-15 28-30.9 39.9-44.7M71 55.4c8.7-11.9 18.3-20 40-46.4M70.8 55a925 925 0 0 1 39.7-44.7M74.6 55.8c11.8-15 24.6-30.2 38.2-47.8M73.4 55C86 40.7 97.9 26.3 112.8 9.9M76 55.1c10.7-11.6 20.2-21.2 39.4-46M76 55.3c10.3-12 19.9-23.5 39-45.5m-35.3 45c12.4-14.4 22-26.4 39.3-46m-40.5 46a1572 1572 0 0 1 39.8-44.5M81.2 53.6c11.7-9.9 20.4-21.7 40.4-43.2m-40 44.3c13-14.5 25-29.5 39.4-45m-36.2 46c15.6-17.8 29.4-35 39.8-47.4M84 54.4c9.4-10.6 18.6-22.1 39.6-44.4m-37 45.5C96.3 45 105 34 124.5 10M86.2 55c14.2-16.5 28.5-31.7 39.1-45M88.2 53.7c10.3-10.2 19.7-20.6 41.5-44m-40.3 45a946 946 0 0 1 39-44.6M92.1 56a345 345 0 0 1 40.7-46.2M91.5 54.4a689 689 0 0 0 39.3-45.2M96 54.3c12.6-13.1 23.7-28 37-44.1M94.5 55.1c8.4-10 17-20 40-46M97.5 54a1104 1104 0 0 1 39.2-43m-40 44c8-9.5 16.7-19.2 40-45.5M99 53.8c15.6-16.2 31-34.7 40.9-44M99.8 55.7c14.8-16.5 29.8-34.4 39.4-46.3m-36.5 46.5A574 574 0 0 1 143 10.4m-40.4 44.1c8.7-10.2 17.1-19.7 39-45m-37.2 44c16.2-14 28.6-30.3 41.3-44.7M106.1 55c11.3-13 23.1-26.7 38.6-45.8M106.5 54a701 701 0 0 0 39.7-43.6M108 55c13.6-15.3 26.7-31.5 39.5-45.7m-37.6 47a703 703 0 0 1 40-47M110.3 55c8-9.6 17-19.5 39.2-45.4m-35.3 45c7.1-9.3 17-20.7 39.6-45M114 54.1c11.3-12.9 21.9-25 38.8-44.7M115 53.2c13.5-14.4 26.9-29 41-45M116.6 55c13-16 26.9-32.4 39-46.4m-37.1 47c11-15 24-29.4 39.6-44.9M117.8 55c10-11 20.1-22 39.7-45.7M121.2 54c11.1-12.3 20.1-22.6 39-43.4m-39.7 44c15.4-16.6 30.6-34.8 40.3-44.9m-36.5 44.8c8.2-9.9 16.8-19 38.2-46.3m-39.1 47.1c12-13.5 23.2-27.7 39.8-45.5m-37.6 44.5C138 39.8 151.2 25.9 165.4 10m-39.9 45.3c16.4-17.8 32.6-36.6 41-46.2M130 54.3c13.1-15.2 26.5-30.1 38.9-45.8m-40.4 46c16-17 31.6-35.8 40-44.1m-36 43.6c13-15.4 26.6-31 37.5-45.6m-38.5 46.7A3055 3055 0 0 0 170.9 9m-37.2 46c9.8-13 21.4-24 38.9-45m-38.4 45C150.4 36.8 165 19 174 10m-38.2 45.5c9.8-9.6 18.9-21.3 40.9-44.2M136 54.5c10.3-11.1 20-22.6 39.4-44M139.7 54c8.8-9.3 15.3-17.7 40.1-44.7m-40.6 46.3c8.8-11.2 18.9-22 39.5-45.4m-35 45.6c10.4-13 21-28.4 38.4-46.5m-40 45.8c11.4-12.5 21.5-25.8 40-45m-36.5 43.5c8.3-10.4 20.7-21.6 38.7-45.3m-39 46.2c13-14.3 25-28.4 39.5-45.5m-36.5 46.6A929 929 0 0 1 186.4 10m-39.5 45.2c10.5-12.4 22-25.2 39.7-45.2m-37.5 43.7c10.9-10.5 22.7-23 40.6-43m-39.7 44c15.1-16.7 30.1-33.4 39.2-45m-35.5 43.7c11.9-13.3 27.5-29.6 36.1-41.7m-36.3 42.5c12.2-14.2 24.9-29 36-41.3m-33 40.5c7.8-9.7 17.1-19.2 31.7-38.7M155.7 54a853 853 0 0 1 33.8-37.8m-31.4 40c7-10.2 14.2-17.8 31-37.4M157.6 55c7.7-7.4 14.2-15.9 32.5-35.8m-28 36.1c7.3-10.8 16-20 26.7-32.8m-28.2 32.8c6-7.3 12.8-15.8 29.3-34.1M164 55c5.3-5.7 11-14.8 25.5-29.2m-26.2 28.5c6.7-7.7 14-15.3 27.2-30.5M166 55.2c7-6.7 11.7-13.2 24.7-28.2m-24.6 27.3c6.5-6.9 12.7-13.5 23.4-26.3M168 55.5c5.6-7.7 11.2-14.5 22-24m-21 23.2c4.7-4.9 9.7-10.9 21.3-23.1m-19.6 23.7c5.5-4.9 9-8.2 20.3-21.7m-20 20.7c7.7-6.2 13.9-14.2 18.2-20.3m-15.9 21.4c5.8-7.8 11.1-12.8 16.1-18.6m-14.7 18c5.5-6.7 10.7-13.7 14.4-18m-13 17.4c4.7-4.2 6.8-6.8 13.7-14.7m-12.5 15.4c3-3.5 5-6.4 12.2-14.8m-9.3 15.4c2-2.5 4-6.3 8.5-12.4m-9 12.5c3.1-5.5 8.2-9.9 10.6-13m-8.8 11.6a27 27 0 0 0 8.4-7.9m-8.1 8.6c2.4-2.4 4.3-5.1 7.3-8.5m-4 8.4c.6-1.5 1.2-2.6 4.2-5m-4.2 4.8a55 55 0 0 0 4.4-5.4m-2.4 6.1q1.3-1.3 2.6-3m-2.6 3 2.7-3.2"/><path fill="none" stroke="#2d2822" stroke-dasharray="0 0" stroke-width="1.3" d="M8 8.7c38.7 1.7 73.5 1.6 180.4 0M9 9.5c62.6 1.1 126.6 1.1 180.3-.4m-.8.3c1 15.1 1.5 29.6 2 46.5m-1-46c-.3 12.2.5 25 .5 45m-1-1.3C133 54.8 78 55 10 55.4m179-.1c-41.7.2-83.2.3-179.2-.5m-1.2-1.6c1.6-7 1.6-16.4.9-44M9 55.4c.7-16.7.4-32-.3-45"/></g><g class="label" transform="translate(99.5 24.6)"><rect/><rect class="background" style="stroke:none"/><text y="-10.1"><tspan x="0" y="-.1em" class="text-outer-tspan row" dy="1.1em"><tspan class="text-inner-tspan" font-style="normal" font-weight="normal">客户端</tspan></tspan></text></g></g><g id="mmd-5f2a70b409a2-flowchart-B-1" class="rough-node default" data-look="handDrawn"><g class="basic label-container"><path fill="none" stroke="transparent" stroke-dasharray="0 0" stroke-width="1.5" d="M10 129.4c.9-.6 1.6-1.8 2.5-2.7m-2.8 2.8q1.2-1 2.7-3m-3.6 6.9q3.8-3 5.6-6.1M9.3 133l5.2-5.9M9 135.3c2.5-1.9 5.5-3.8 8.4-9m-8 9.4c2-1.8 3.4-3.5 8.2-8.8m-7.8 12c2-3.2 4.8-7.4 9.5-12.5m-10.1 13c3.9-5.2 9-9.7 11.3-12.8M8.3 142.8c5.2-6.6 11-11.7 14.6-17.6M9.5 142.7a323 323 0 0 1 13.2-16m-12 18.7a94 94 0 0 1 13.7-18.7M9.9 145.2c3.7-4 7.4-9 16-18.6M8.2 148.3c5.9-6.5 9.2-9 18.8-22.3M9.7 147.6c6.6-7.5 14.1-16.7 18-20.4M8.4 151.7c9.1-10.4 16.5-19.2 21.2-24.9M9.7 150.6c4.9-5.4 10.6-12.5 21-23.3M9 153.3c6.8-5 14.5-14.8 24.3-27.8M9.8 154.9c4.5-6.2 10.4-12.8 23.5-27.9M9.8 156c7.7-8.6 16.1-16.9 24.7-28.5M9.7 157.6c5.7-6.5 11.3-13.4 25.8-31m-25.2 32.6c9.3-12 22-24.6 28.2-32.3M9.2 159.7c11.1-13.1 22-24.8 29.6-33M8.6 163.4c11.5-11.5 21.1-21.7 34-35.4M8.9 163c9.4-10 17.5-19.4 33.3-36.6M11 166.2c10-12.1 20.5-23.2 34.5-39.1M8.8 167c14.1-16.2 26.7-30.4 35.3-41m-33.7 43.2c10.2-13.6 24.3-28.7 36-42.3m-37 42.4c13.2-14.5 26.3-30.2 37-42.7M8.8 171.9c15.3-16.3 31.2-33 39.5-45.6m-39 46.5c11.6-14 23.6-27.1 39.7-46m-36.5 44.6C23.5 157 38.1 144 53 128m-40.5 43.8c14.3-16.5 30-33.5 39.1-44.8m-37.1 44c15.5-15 29.2-33.6 39.8-43.7m-39.1 44.8c12-14 25.5-29 39.4-44.4M19 172.1c14.2-17.3 27.8-33.4 36.9-44m-37.6 44c10.4-11.7 20-23.8 39.5-44.7M19 171c17.6-17.5 33.6-33.7 39.6-43m-38.3 43.7c8.3-9.1 16.6-19 40-44.8m-37.1 45.4c8-10.8 19.2-23.1 39.9-46.4m-40 46.4c11.8-13.6 22.2-26 40-45.4M26 171.3c8.6-9.7 20.3-21.7 38-44m-38.6 44.5c8.5-8.6 17.2-18.4 39.3-45.2m-36.3 45.6c8.9-11.8 19-21.4 38.1-46.6M29 172.3c13.7-16.5 26.2-31.8 39.4-46m-38.4 45C43.5 159 56.3 144 71.4 127.5M30.9 172c14.4-17 29.7-33.3 39-45.6M33.2 172c8.7-9 18.7-19 39.4-45.5M34 171.8C46 158 57.6 144 72.7 126.2M35 171.5c11.5-9.7 22-22 39.4-43.8m-38.7 44.2c8.6-8.8 16.6-18.5 40.1-44.7M40.2 172c10-15.2 24.5-28.4 39.4-46M39 172c7.7-9.2 16.8-18.5 38.7-45.3m-35.3 46C55 156.6 71 139.5 82 126.7m-41 44.9c9.2-9.8 17.6-19.2 40-44.4m-36.3 44.4c15.3-17.3 27.8-32.8 38.9-44.8m-39.1 45.5c12-13.8 22.7-26.7 39.8-45.1m-37.8 46.2C61 154.3 77.8 138 84.9 126m-38.5 46.4c8.8-9.3 16.8-18 40-45.5m-37.6 44c10.8-10.8 22.4-21.4 40.7-43.5m-39.4 45c14.8-18 30.1-36.4 39.3-45.4m-37.2 45.7c10.1-10.8 20-23.3 39.4-45.5m-38.7 45c12.7-16.5 25.5-30.7 38.3-45.2m-35 45.1c7.3-10.4 18.5-21.5 38.4-45.6m-39.1 45.4c12-14 24.4-27.9 38.5-45.7m-36.5 47.2c9.6-13.7 18-23.3 40.4-47.6M56.7 173c12.2-13.4 24-27.4 39.7-46.5M60.2 172C73 157.2 86.5 140 99 125.9m-39.5 46.7L99 127.3m-36.2 45.2c12.5-16.2 26.8-29 40.9-46.6m-40.8 45.6c13.2-14.2 26.3-29 38.8-45.5m-35.8 47c15-17.5 31.8-35.8 38.3-47.3M64.7 172l40.5-45.1m-38 44.3c9.8-11.8 22.8-23.9 39.7-43m-39.2 43.6c14.1-15 28-30.9 39.9-44.7M71 172.6c8.6-11.9 18.2-20 39.9-46.4m-40.2 46a925 925 0 0 1 39.7-44.8M74.6 173c11.8-15 24.6-30.2 38.2-47.8m-39.4 47.1c12.7-14.5 24.5-29 39.4-45.3M76 172.3c10.7-11.6 20.2-21.2 39.4-46M76 172.6c10.3-12 19.9-23.5 39-45.5m-35.3 45c12.4-14.4 22-26.4 39.3-46m-40.5 46c7.5-8.9 16.7-19.4 39.8-44.6m-37.1 43.3c11.7-9.8 20.4-21.7 40.4-43.1m-40 44.3c13-14.6 25-29.6 39.4-45.2M84.8 173c15.6-17.8 29.4-35 39.8-47.4m-40.7 46c9.4-10.5 18.6-22.1 39.6-44.4m-37 45.5c9.8-10.5 18.6-21.5 38-45.4M86.2 172c14.2-16.4 28.5-31.6 39.1-44.9M88.2 171c10.3-10.2 19.7-20.6 41.5-44m-40.3 45a946 946 0 0 1 39-44.6m-36.3 46a345 345 0 0 1 40.7-46.1m-41.3 44.4a689 689 0 0 0 39.3-45.2m-34.8 45c12.6-13.1 23.7-28 37-44m-38.6 44.8c8.4-10 17-20 40-46m-36.8 45a1104 1104 0 0 1 39.1-43.2m-40 44c8-9.5 16.7-19.2 40-45.5M99 171c15.6-16.2 31-34.7 40.9-44m-40.1 45.8c14.8-16.5 29.8-34.4 39.4-46.3M102.7 173a574 574 0 0 1 40.4-45.4m-40.4 44.1c8.7-10.2 17.1-19.7 39-45m-37.2 44c16.2-14 28.6-30.3 41.3-44.7m-39.7 46.2c11.3-13 23.1-26.7 38.6-45.7m-38.2 44.7a701 701 0 0 0 39.7-43.6M108 172.2c13.6-15.2 26.7-31.5 39.5-45.7m-37.6 47a703 703 0 0 1 40-47m-39.7 45.7c8-9.6 17-19.5 39.2-45.3m-35.3 44.9c7.1-9.3 17-20.7 39.6-45M114 171.4c11.3-12.9 21.9-25 38.8-44.7M115 170.4c13.5-14.4 26.9-29 41-45m-39.5 46.9c13-16 26.9-32.5 39-46.5m-37.1 47c11-14.9 24-29.4 39.6-44.9m-40.3 44.3c10-11 20.1-22 39.7-45.7m-36.3 44.6c11.1-12.3 20.1-22.6 39-43.4m-39.7 44c15.4-16.6 30.6-34.8 40.3-44.9m-36.5 44.8c8.2-9.8 16.8-19 38.2-46.3m-39.1 47.1c12-13.5 23.2-27.7 39.8-45.5m-37.6 44.5c12.4-14.4 25.6-28.3 39.8-44.2m-39.9 45.3c16.4-17.8 32.6-36.6 41-46.2M130 171.6c13.1-15.3 26.5-30.2 38.9-45.9m-40.4 46c16-17 31.6-35.8 40-44.1m-35.8 43.7c13-15.5 26.6-31.2 37.5-45.6m-38.5 46.6c14.6-16.7 29-33.6 39.4-46.1m-37.2 46c9.8-13 21.4-24 38.9-45m-38.5 44.9c16.2-18 30.9-35.9 39.8-44.9m-38.2 45.5c9.8-9.6 18.9-21.3 40.9-44.2M136 171.8c10.3-11.2 20-22.7 39.4-44.1m-35.8 43.6c8.8-9.3 15.3-17.7 40.1-44.7m-40.6 46.3c8.8-11.2 18.9-22 39.5-45.4m-35 45.6c10.4-13 21-28.4 38.4-46.5m-40 45.8c11.4-12.5 21.5-25.8 40-45M145.6 171c8.3-10.4 20.7-21.6 38.7-45.2m-39 46c13-14.2 25-28.3 39.5-45.4M148.3 173a929 929 0 0 1 38.1-45.6m-39.5 45.3c10.5-12.5 22-25.3 39.7-45.3M149.1 171c10.9-10.5 22.7-23 40.6-43M150 172c15.1-16.8 30.1-33.5 39.2-45m-35.5 43.6c11.9-13.3 27.5-29.6 36.1-41.7m-36.3 42.5c12.2-14.2 24.9-29 36-41.3m-33 40.5c7.8-9.7 17.1-19.2 31.7-38.7m-32.5 39.2a853 853 0 0 1 33.8-37.8m-31.4 40c7-10.2 14.2-17.8 31-37.4m-31.5 36.2c7.7-7.4 14.2-15.9 32.5-35.8m-28 36.1c7.3-10.7 16-20 26.7-32.8m-28.2 32.8c6-7.3 12.8-15.8 29.3-34.1m-25.9 34c5.3-5.7 11-14.8 25.5-29.2m-26.2 28.5c6.7-7.7 14-15.3 27.2-30.5M166 172.4c7-6.7 11.7-13.2 24.7-28.2m-24.6 27.3c6.5-6.8 12.7-13.5 23.4-26.3M168 172.7c5.6-7.7 11.2-14.5 22-24M169 172c4.7-4.9 9.7-10.9 21.3-23.1m-19.6 23.7c5.5-4.9 9-8.2 20.3-21.7m-20 20.7c7.7-6.2 13.9-14.2 18.2-20.3m-15.9 21.4c5.8-7.8 11.1-12.8 16.1-18.6m-14.7 18c5.5-6.7 10.7-13.7 14.4-18m-13 17.4c4.7-4.2 6.8-6.8 13.7-14.7M177.3 172c3-3.5 5-6.4 12.2-14.8m-9.3 15.4c2-2.5 4-6.3 8.5-12.4m-9 12.5c3.1-5.5 8.2-9.9 10.6-12.9m-8.8 11.5a27 27 0 0 0 8.4-7.9m-8.1 8.6c2.4-2.4 4.3-5.1 7.3-8.5m-4 8.4c.6-1.5 1.2-2.5 4.2-5m-4.2 4.8a55 55 0 0 0 4.4-5.4m-2.4 6.1q1.3-1.2 2.6-3m-2.6 3 2.7-3.2"/><path fill="none" stroke="#2d2822" stroke-dasharray="0 0" stroke-width="1.3" d="M8 126c38.7 1.6 73.5 1.5 180.4 0M9 126.6c62.6 1.1 126.6 1.1 180.3-.4m-.8.3c1 15.2 1.5 29.6 2 46.6m-1-46.1c-.3 12.2.5 25 .5 45m-1-1.3c-56 1.2-111 1.4-179 1.8m179 0c-41.7.1-83.2.2-179.2-.6m-1.2-1.6c1.6-7 1.6-16.4.9-43.9m-.5 46c.7-16.7.4-32-.3-45"/></g><g class="label" transform="translate(99.5 141.8)"><rect/><rect class="background" style="stroke:none"/><text y="-10.1"><tspan x="0" y="-.1em" class="text-outer-tspan row" dy="1.1em"><tspan class="text-inner-tspan" font-style="normal" font-weight="normal">宿主机</tspan></tspan></text></g></g><g id="mmd-5f2a70b409a2-flowchart-C-2" class="rough-node default" data-look="handDrawn"><g class="basic label-container"><path fill="none" stroke="transparent" stroke-dasharray="0 0" stroke-width="1.5" d="M10 246.6c.9-.6 1.6-1.8 2.5-2.6m-2.8 2.7q1.2-1 2.7-3m-3.6 6.9q3.8-3 5.6-6m-5.1 5.6 5.2-5.8m-5.5 8c2.5-1.8 5.5-3.7 8.4-8.8m-8 9.3c2-1.8 3.4-3.5 8.2-8.8m-7.8 12.1a76 76 0 0 1 9.5-12.6m-10.1 13c3.9-5.2 9-9.7 11.3-12.8M8.3 260c5.2-6.6 11-11.7 14.6-17.6M9.5 260a323 323 0 0 1 13.2-16m-12 18.7A94 94 0 0 1 24.4 244M9.9 262.4c3.7-4 7.4-9 16-18.6M8.2 265.5c5.9-6.5 9.2-9 18.8-22.3M9.7 264.8c6.6-7.5 14.1-16.7 18-20.4M8.4 268.9c9.1-10.4 16.5-19.2 21.2-24.9M9.7 268c4.9-5.5 10.6-12.5 21-23.4M9 270.5c6.8-5 14.5-14.8 24.3-27.8M9.8 272c4.5-6.2 10.4-12.7 23.5-27.9m-23.5 29c7.7-8.6 16.1-16.9 24.7-28.5M9.7 274.8c5.7-6.5 11.3-13.4 25.8-31m-25.2 32.6c9.3-12 22-24.6 28.2-32.3M9.2 276.9c11.1-13.1 22-24.8 29.6-33M8.6 280.7c11.5-11.6 21.1-21.8 34-35.5M8.9 280.3c9.4-10 17.5-19.4 33.3-36.6M11 283.5c10.2-12.2 20.6-23.3 34.6-39.2m-36.7 40C23 268 35.5 254 44.1 243.3m-33.7 43.2c10.2-13.6 24.3-28.7 36-42.3m-37 42.4c13.2-14.5 26.3-30.2 37-42.7M8.8 289.1C24 272.8 40 256.2 48.3 243.5M9.3 290c11.6-14 23.6-27 39.7-46m-36.5 44.6c11-14.5 25.6-27.4 40.5-43.5M12.5 289c14.3-16.5 30-33.5 39.1-44.8m-37.1 44.2c15.5-15 29.2-33.6 39.8-43.7m-39.1 44.8c12-13.9 25.5-29 39.4-44.4M19 289.3c14-17.3 27.7-33.3 36.8-44m-37.6 44c10.4-11.7 20-23.8 39.5-44.7M19 288.2c17.6-17.5 33.6-33.7 39.6-43M20.4 289c8.3-9 16.6-19 40-44.8m-37.1 45.4c8-10.8 19.2-23.1 39.9-46.4m-40 46.4c11.8-13.6 22.2-26 40-45.4m-37.1 44.4c8.6-9.7 20.3-21.7 38-44M25.4 289c8.5-8.6 17.2-18.4 39.3-45.2m-36.3 45.6c8.9-11.7 19-21.4 38.1-46.6M29 289.5c13.7-16.5 26.2-31.8 39.4-46m-38.4 45c13.6-12.3 26.4-27.2 41.5-43.7M31 289.2c14.4-17 29.7-33.2 39-45.6m-36.6 45.7c8.7-9 18.7-19 39.4-45.5M34 289c12-13.7 23.6-27.7 38.7-45.6M35 288.7c11.5-9.7 22-22 39.4-43.8M35.6 289c8.6-8.8 16.6-18.4 40.1-44.6M40.2 289c10-15.2 24.5-28.4 39.4-46M39 289c7.7-9.2 16.8-18.5 38.7-45.3m-35.3 46C55 273.8 71 256.7 82 243.9m-41 44.9c9.2-9.8 17.6-19.2 40-44.4m-36.3 44.4C60 271.5 72.5 256 83.6 244m-39.1 45.5c12-13.8 22.7-26.7 39.8-45.1m-37.8 46.2c14.5-19 31.3-35.5 38.4-47.4m-38.5 46.4c8.8-9.3 16.8-18 40-45.5m-37.6 44c10.8-10.8 22.4-21.4 40.7-43.5M50 289.7c14.8-18 30.1-36.5 39.3-45.5m-37.2 45.7c10.1-10.8 20-23.3 39.4-45.5m-38.7 45c12.7-16.5 25.5-30.7 38.3-45.2m-35 45.1c7.3-10.4 18.5-21.5 38.4-45.6m-39 45.3c12-14 24.4-27.9 38.5-45.7m-36.5 47.2c9.6-13.7 18-23.3 40.4-47.6m-41.2 47.2c12.2-13.4 24-27.4 39.7-46.5M60.2 289C73 274.4 86.5 257.2 99 243m-39.5 46.7L99 244.5m-36.2 45.2c12.5-16.2 26.8-28.9 40.9-46.6m-40.8 45.6c13.2-14.2 26.3-29 38.8-45.5m-35.8 47.2c15-17.5 31.8-35.9 38.3-47.4m-39.5 46.1 40.5-45.1m-38 44.3c9.8-11.8 22.8-23.9 39.7-43M67.7 289a1316 1316 0 0 0 39.9-44.7M71 289.8c8.6-11.9 18.2-20 39.9-46.4m-40.2 46a925 925 0 0 1 39.7-44.8m-35.9 45.6c11.8-15 24.6-30.2 38.2-47.7m-39.4 47c12.7-14.5 24.5-29 39.4-45.3M76 289.5c10.7-11.6 20.2-21.2 39.4-46M76 289.8c10.3-12 19.9-23.5 39-45.5m-35.3 45c12.4-14.4 22-26.4 39.3-46m-40.5 46c7.5-8.8 16.7-19.4 39.8-44.6M81.2 288c11.7-9.8 20.4-21.7 40.4-43.1m-40 44.3c13-14.6 25-29.6 39.4-45.2m-36.2 46.2c15.6-17.8 29.4-35 39.8-47.4M84 288.9c9.4-10.6 18.6-22.2 39.6-44.5m-37 45.5c9.8-10.5 18.6-21.5 38-45.4m-38.3 44.9c14.2-16.5 28.5-31.7 39.1-45m-37.1 43.7c10.3-10.2 19.7-20.6 41.5-44m-40.3 45a946 946 0 0 1 39-44.6m-36.3 46a345 345 0 0 1 40.7-46.1m-41.3 44.4a689 689 0 0 0 39.3-45.2M96 288.7c12.6-13.1 23.7-28 37-44m-38.6 44.8c8.4-10 17-20 40-46m-36.8 45a1104 1104 0 0 1 39.1-43.2m-40 44c8-9.5 16.7-19.2 40-45.5M99 288.2c15.6-16.2 31-34.7 40.9-43.9M99.8 290c14.8-16.5 29.8-34.3 39.4-46.3m-36.5 46.5a574 574 0 0 1 40.4-45.4M102.7 289c8.7-10.2 17.1-19.6 39-45m-37.2 44c16.2-14 28.6-30.3 41.3-44.7m-39.7 46.2c11.3-13 23.1-26.6 38.6-45.7m-38.2 44.7a701 701 0 0 0 39.7-43.6M108 289.4c13.6-15.2 26.7-31.5 39.5-45.7m-37.6 47a703 703 0 0 1 40-47m-39.7 45.7c8-9.6 17-19.5 39.2-45.3M114.1 289c7.1-9.3 17-20.7 39.6-45M114 288.7c11.3-13 21.9-25 38.8-44.8M115 287.6c13.5-14.4 26.9-29 41-45m-39.5 46.9c13-16 26.9-32.5 39-46.5m-37.1 47c11-14.9 24-29.4 39.6-44.9m-40.3 44.4c10-11 20.1-22.1 39.7-45.8m-36.3 44.6 39-43.4m-39.7 44c15.4-16.6 30.6-34.7 40.3-44.9m-36.5 44.8c8.2-9.8 16.8-19 38.2-46.3m-39.1 47.2c12-13.6 23.2-27.8 39.8-45.6m-37.6 44.5c12.4-14.3 25.6-28.3 39.8-44.2m-39.9 45.3c16.4-17.8 32.6-36.6 41-46.2M130 288.8c13.1-15.3 26.5-30.2 38.9-45.9m-40.4 46c16-17 31.6-35.8 40-44.1m-35.8 43.7c13-15.5 26.6-31.2 37.5-45.6m-38.5 46.6c14.6-16.7 29-33.6 39.4-46.1m-37.2 46c9.8-13 21.4-24 38.9-45m-38.5 45c16.2-18.2 30.9-36 39.8-45M135.8 290c9.8-9.6 18.9-21.3 40.9-44.2M136 289c10.3-11.2 20-22.7 39.4-44.1m-35.8 43.7c8.8-9.4 15.3-17.8 40.1-44.8M139.2 290c8.8-11.2 18.9-22 39.5-45.3m-35 45.5c10.4-13 21-28.4 38.4-46.5m-40 45.8c11.4-12.5 21.5-25.8 40-45M145.6 288c8.3-10.4 20.7-21.6 38.7-45.2m-39 46c13-14.2 25-28.3 39.5-45.4m-36.5 46.7a929 929 0 0 1 38.1-45.7m-39.5 45.3c10.5-12.5 22-25.3 39.7-45.3m-37.5 43.7c10.9-10.5 22.7-23 40.6-43M150 289.2c15.1-16.8 30.1-33.5 39.2-45m-35.5 43.6c11.9-13.3 27.5-29.6 36.1-41.7m-36.3 42.5c12.2-14.2 24.9-29 36-41.3m-33 40.5c7.8-9.7 17.1-19.2 31.7-38.7m-32.5 39.2a853 853 0 0 1 33.8-37.8m-31.4 40c7-10.2 14.2-17.8 31-37.4m-31.5 36.2c7.7-7.3 14.2-15.9 32.5-35.8m-28 36.1c7.3-10.7 16-20 26.7-32.8m-28.2 32.8c6-7.3 12.8-15.8 29.3-34.1m-25.9 34c5.3-5.7 11-14.8 25.5-29.2m-26.2 28.5c6.7-7.7 14-15.3 27.2-30.5M166 289.6c7-6.7 11.7-13.2 24.7-28.2m-24.6 27.3c6.5-6.8 12.7-13.5 23.4-26.3M168 290c5.6-7.6 11.2-14.5 22-23.9m-21 23.1c4.7-4.9 9.7-10.8 21.3-23.1m-19.6 23.7c5.5-4.9 9-8.2 20.3-21.7m-20 20.7c7.7-6.2 13.9-14.2 18.2-20.3m-15.9 21.4c5.8-7.7 11.1-12.8 16.1-18.6m-14.7 18c5.5-6.7 10.7-13.7 14.4-18m-13 17.4c4.7-4.2 6.8-6.8 13.7-14.7m-12.5 15.4c3-3.5 5-6.4 12.2-14.8m-9.3 15.4c2-2.5 4-6.3 8.5-12.4m-9 12.6c3.1-5.6 8.2-10 10.6-13m-8.8 11.6a27 27 0 0 0 8.4-8m-8.1 8.6c2.4-2.4 4.3-5.1 7.3-8.5m-4 8.4c.6-1.5 1.2-2.5 4.2-4.9m-4.2 4.7a55 55 0 0 0 4.4-5.4m-2.4 6.1q1.3-1.2 2.6-3m-2.6 3 2.7-3.2"/><path fill="none" stroke="#2d2822" stroke-dasharray="0 0" stroke-width="1.3" d="M8 243.1c38.7 1.8 73.5 1.6 180.4 0M9 244c62.6 1.1 126.6 1.2 180.3-.4m-.8.4c1 15 1.5 29.5 2 46.5m-1-46c-.3 12.2.5 24.8.5 45m-1-1.4c-56 1.2-111 1.4-179 1.8m179 0c-41.7.1-83.2.2-179.2-.6m-1.2-1.6c1.6-7 1.6-16.4.9-43.9m-.5 46c.7-16.7.4-32-.3-45"/></g><g class="label" transform="translate(99.5 259)"><rect/><rect class="background" style="stroke:none"/><text y="-10.1"><tspan x="0" y="-.1em" class="text-outer-tspan row" dy="1.1em"><tspan class="text-inner-tspan" font-style="normal" font-weight="normal">docker0</tspan><tspan class="text-inner-tspan" font-style="normal" font-weight="normal"> 网桥</tspan></tspan></text></g></g><g id="mmd-5f2a70b409a2-flowchart-D-3" class="rough-node default" data-look="handDrawn"><g class="basic label-container"><path fill="none" stroke="transparent" stroke-dasharray="0 0" stroke-width="1.5" d="M10 363.8q1.3-1 2.5-2.6m-2.8 2.7q1.2-1 2.7-3m-3.6 6.9q3.8-2.8 5.6-6m-5.1 5.6 5.2-5.8m-5.5 8c2.5-1.8 5.5-3.7 8.4-8.8m-8 9.3c2-1.7 3.4-3.5 8.2-8.7m-7.8 12a76 76 0 0 1 9.5-12.6m-10.1 13c3.9-5.2 9-9.7 11.3-12.8M8.3 377.3c5.2-6.7 11-11.8 14.6-17.6M9.5 377a323 323 0 0 1 13.2-16m-12 18.7A94 94 0 0 1 24.4 361M9.9 379.6c3.7-4 7.4-9 16-18.6M8.2 382.8c5.9-6.6 9.2-9 18.8-22.3M9.7 382c6.6-7.4 14.1-16.7 18-20.4M8.4 386c9.1-10.4 16.5-19.2 21.2-24.9m-19.9 24c4.9-5.5 10.6-12.5 21-23.4M9 387.7c6.8-5 14.5-14.8 24.3-27.8M9.8 389.3c4.5-6.2 10.4-12.7 23.5-27.8m-23.5 29c7.7-8.7 16.1-17 24.7-28.6M9.7 392c5.7-6.5 11.3-13.4 25.8-31m-25.2 32.6c9.3-11.9 22-24.5 28.2-32.3M9.2 394.1c11.1-13.1 22-24.8 29.6-33M8.6 397.9a1575 1575 0 0 0 34-35.5M8.9 397.6c9.4-10.1 17.5-19.5 33.3-36.7M11 400.7c10.2-12.2 20.6-23.3 34.6-39.2m-36.7 40c14.1-16.2 26.7-30.3 35.3-41m-33.7 43.2c10.2-13.6 24.3-28.6 36-42.3m-37 42.4c13.2-14.5 26.3-30.2 37-42.7M8.8 406.3C24 390 40 373.4 48.3 360.7m-39 46.5c11.6-14 23.6-27 39.7-46M12.5 406c11-14.6 25.6-27.5 40.5-43.6m-40.5 43.8c14.3-16.5 30-33.5 39.1-44.8m-37.1 44.2c15.5-15 29.2-33.6 39.8-43.7m-39.1 44.8c12-13.9 25.5-29 39.4-44.4M19 406.5c14.2-17.3 27.8-33.4 36.9-44m-37.6 44c10.4-11.7 20-23.8 39.5-44.7M19 405.4c17.6-17.5 33.6-33.6 39.6-43m-38.3 43.7c8.3-9 16.6-19 40-44.8m-37.1 45.5c8-11 19.2-23.2 39.9-46.5m-40 46.5c11.8-13.7 22.2-26 40-45.5M26 405.7c8.6-9.7 20.3-21.7 38-44m-38.6 44.5c8.5-8.6 17.2-18.3 39.3-45.2m-36.3 45.6c8.9-11.7 19-21.4 38.1-46.6M29 406.7c13.7-16.5 26.2-31.8 39.4-46m-38.4 45c13.6-12.3 26.4-27.2 41.5-43.7M31 406.4c14.4-16.9 29.7-33.2 39-45.6m-36.6 45.7c8.7-9 18.7-19 39.4-45.5M34 406.2c12-13.6 23.6-27.7 38.7-45.6M35 406c11.5-9.7 22-22 39.4-43.8m-38.7 44.2c8.6-8.8 16.6-18.4 40.1-44.6m-35.5 44.6c10-15.2 24.5-28.4 39.4-46m-40.6 46c7.7-9.2 16.8-18.5 38.7-45.3m-35.3 46C55 391 71 373.9 82 361m-41 45c9.2-9.8 17.6-19.2 40-44.4M44.7 406c15.3-17.3 27.8-32.7 38.9-44.8m-39.1 45.5c12-13.8 22.7-26.6 39.8-45.1m-37.8 46.2c14.5-19 31.3-35.4 38.4-47.4M46.4 407c8.8-9.4 16.8-18 40-45.6m-37.6 44c10.8-10.8 22.4-21.4 40.7-43.5m-39.5 45c14.8-18 30.1-36.5 39.3-45.5M52.2 407c10.1-10.8 20-23.3 39.4-45.5m-38.7 45c12.7-16.5 25.5-30.7 38.3-45.2m-35 45.1c7.3-10.3 18.5-21.4 38.4-45.6m-39.1 45.4c12-14 24.4-27.8 38.5-45.7m-36.5 47.2c9.6-13.7 18-23.3 40.4-47.6m-41.2 47.2C68.9 394 80.7 380 96.4 361m-36.2 45.4c12.9-14.7 26.3-31.9 38.9-46m-39.5 46.8L99 361.7M62.8 407c12.5-16.2 26.8-28.9 40.9-46.6M62.9 406c13.2-14.2 26.3-29 38.8-45.5m-35.8 47.2c15-17.5 31.8-35.9 38.3-47.4m-39.5 46.1 40.5-45.1m-38 44.4c9.8-11.9 22.8-24 39.7-43M67.7 406a1316 1316 0 0 0 39.9-44.7M71 407c8.6-11.9 18.2-20 39.9-46.4m-40.2 46a925 925 0 0 1 39.7-44.8m-35.9 45.6c11.8-14.9 24.6-30.2 38.2-47.7m-39.4 47c12.7-14.5 24.5-29 39.4-45.3M76 406.8c10.7-11.7 20.2-21.2 39.4-46.1M76 407c10.3-12 19.9-23.5 39-45.5m-35.3 45c12.4-14.3 22-26.4 39.3-46m-40.5 46c7.5-8.8 16.7-19.4 39.8-44.5m-37.1 43.2c11.7-9.8 20.4-21.6 40.4-43.1m-40 44.3c13-14.5 25-29.6 39.4-45.2m-36.2 46.2c15.6-17.8 29.4-35 39.8-47.4M84 406.1c9.4-10.6 18.6-22.2 39.6-44.5m-37 45.5c9.8-10.5 18.6-21.5 38-45.4m-38.3 44.9c14.2-16.4 28.5-31.7 39.1-45m-37.1 43.7c10.3-10.2 19.7-20.6 41.5-44m-40.3 45a946 946 0 0 1 39-44.6m-36.3 46a345 345 0 0 1 40.7-46.1M91.5 406a689 689 0 0 0 39.3-45.2M96 405.9c12.6-13.1 23.7-28 37-44m-38.6 44.8c8.4-10 17-20 40-46m-36.8 45a1104 1104 0 0 1 39.1-43.2m-40 44c8-9.5 16.7-19.2 40-45.4M99 405.4c15.6-16.2 31-34.7 40.9-43.9m-40.1 45.7c14.8-16.5 29.8-34.3 39.4-46.2m-36.5 46.5A574 574 0 0 1 143 362m-40.4 44c8.7-10.2 17.1-19.6 39-45m-37.2 44c16.2-14 28.6-30.3 41.3-44.7M106 406.5c11.3-13 23.1-26.6 38.6-45.7m-38.2 44.7a701 701 0 0 0 39.7-43.5M108 406.6c13.6-15.2 26.7-31.5 39.5-45.7M110 408c12-15.4 23-28.4 40-47m-39.7 45.8c8-9.7 17-19.6 39.2-45.4m-35.3 44.9c7.1-9.3 17-20.7 39.6-45M114 405.9c11.3-13 21.9-25 38.8-44.7M115 404.8c13.5-14.3 26.9-29 41-45m-39.5 46.9c13-16 26.9-32.5 39-46.5m-37.1 47c11-14.9 24-29.4 39.6-44.9m-40.3 44.4c10-11 20.1-22.1 39.7-45.8m-36.3 44.6 39-43.4m-39.7 44c15.4-16.6 30.6-34.7 40.3-44.9M124.3 406c8.2-9.8 16.8-19 38.2-46.3M123.4 407c12-13.6 23.2-27.8 39.8-45.6m-37.6 44.5c12.4-14.3 25.6-28.2 39.8-44.2M125.5 407c16.4-17.8 32.6-36.6 41-46.2M130 406c13.1-15.3 26.5-30.2 38.9-45.9m-40.4 46.1c16-17 31.6-35.9 40-44.2m-35.8 43.7c13-15.5 26.6-31.1 37.5-45.6m-38.5 46.6c14.6-16.7 29-33.6 39.4-46m-37.2 46c9.8-13 21.4-24.1 38.9-45m-38.5 44.8c16.2-18 30.9-35.9 39.8-44.8M135.8 407c9.8-9.6 18.9-21.3 40.9-44.1M136 406.2c10.3-11.2 20-22.7 39.4-44m-35.8 43.6c8.8-9.4 15.3-17.8 40.1-44.8m-40.6 46.4c8.8-11.3 18.9-22 39.5-45.4m-35 45.5c10.4-13 21-28.4 38.4-46.5m-40 45.8c11.4-12.5 21.5-25.8 40-45m-36.5 43.5c8.3-10.4 20.7-21.6 38.7-45.2m-39 46c13-14.2 25-28.3 39.5-45.4m-36.5 46.7a929 929 0 0 1 38.1-45.7M146.9 407c10.5-12.5 22-25.3 39.7-45.3m-37.5 43.7c10.9-10.5 22.7-23 40.6-43m-39.7 44c15.1-16.8 30.1-33.5 39.2-45M153.7 405c11.9-13.3 27.5-29.6 36.1-41.7M153.5 406c12.2-14.2 24.9-29 36-41.3m-33 40.5c7.8-9.7 17.1-19.2 31.7-38.7m-32.5 39.3a853 853 0 0 1 33.8-37.9m-31.4 40c7-10.1 14.2-17.8 31-37.4m-31.5 36.2c7.7-7.3 14.2-15.9 32.5-35.8m-28 36.1c7.3-10.7 16-20 26.7-32.8M160.6 407c6-7.3 12.8-15.8 29.3-34M164 406.6c5.3-5.7 11-14.8 25.5-29.2M163.3 406c6.7-7.7 14-15.3 27.2-30.5M166 406.8c7-6.7 11.7-13.2 24.7-28.2M166.1 406c6.5-7 12.7-13.6 23.4-26.4M168 407.1c5.6-7.6 11.2-14.5 22-23.9m-21 23.1c4.7-4.9 9.7-10.8 21.3-23.1m-19.6 23.7c5.5-4.9 9-8.2 20.3-21.7M171 406a98 98 0 0 0 18.2-20.3M173.3 407c5.8-7.7 11.1-12.8 16.1-18.6m-14.7 18c5.5-6.6 10.7-13.7 14.4-18m-13 17.4c4.7-4.2 6.8-6.8 13.7-14.7m-12.5 15.4c3-3.5 5-6.4 12.2-14.8m-9.3 15.4c2-2.5 4-6.3 8.5-12.3m-9 12.5c3.1-5.6 8.2-10 10.6-13m-8.8 11.6a27 27 0 0 0 8.4-8m-8.1 8.6c2.4-2.4 4.3-5.1 7.3-8.5m-4 8.4c.6-1.4 1.2-2.5 4.2-4.9m-4.2 4.7a55 55 0 0 0 4.4-5.4m-2.4 6.1q1.3-1.2 2.6-3m-2.6 3.1q1-1.5 2.7-3.2"/><path fill="none" stroke="#2d2822" stroke-dasharray="0 0" stroke-width="1.3" d="M8 360.4c38.7 1.7 73.5 1.5 180.4 0M9 361c62.6 1.2 126.6 1.2 180.3-.4m-.8.4c1 15 1.5 29.5 2 46.5m-1-46c-.3 12.2.5 24.9.5 45m-1-1.4c-56 1.3-111 1.4-179 1.9m179-.2c-41.7.2-83.2.3-179.2-.5M8.7 405c1.6-7.1 1.6-16.5.9-44M9 407c.7-16.7.4-32-.3-45"/></g><g class="label" transform="translate(99.5 376.2)"><rect/><rect class="background" style="stroke:none"/><text y="-10.1"><tspan x="0" y="-.1em" class="text-outer-tspan row" dy="1.1em"><tspan class="text-inner-tspan" font-style="normal" font-weight="normal">容器</tspan></tspan></text></g></g></g></g><defs><filter id="mmd-5f2a70b409a2-drop-shadow" width="130%" height="130%"><feDropShadow dx="4" dy="4" flood-color="#000" flood-opacity=".1" stdDeviation="0"/></filter></defs><defs><filter id="mmd-5f2a70b409a2-drop-shadow-small" width="150%" height="150%"><feDropShadow dx="2" dy="2" flood-color="#000" flood-opacity=".1" stdDeviation="0"/></filter></defs><linearGradient id="mmd-5f2a70b409a2-gradient" x1="0%" x2="100%" y1="0%" y2="0%" gradientUnits="objectBoundingBox"><stop offset="0%" stop-color="#2d2822" stop-opacity="1"/><stop offset="100%" stop-color="hsl(-76.3636363636, 33.3333333333%, 87.0588235294%)" stop-opacity="1"/></linearGradient></svg>